<?xml version="1.0" encoding="UTF-8" standalone="no"?>
<!-- Created with Inkscape (http://www.inkscape.org/) -->

<svg
   width="96.476036mm"
   height="132.8815mm"
   version="1.1"
   viewBox="0 0 96.476033 132.8815"
   id="svg74"
   sodipodi:docname="basic.svg"
   inkscape:version="1.3.2 (1:1.3.2+202404261509+091e20ef0f)"
   xmlns:inkscape="http://www.inkscape.org/namespaces/inkscape"
   xmlns:sodipodi="http://sodipodi.sourceforge.net/DTD/sodipodi-0.dtd"
   xmlns="http://www.w3.org/2000/svg"
   xmlns:svg="http://www.w3.org/2000/svg"
   xmlns:rdf="http://www.w3.org/1999/02/22-rdf-syntax-ns#"
   xmlns:cc="http://creativecommons.org/ns#"
   xmlns:dc="http://purl.org/dc/elements/1.1/">
  <defs
     id="defs74" />
  <sodipodi:namedview
     id="namedview74"
     pagecolor="#ffffff"
     bordercolor="#000000"
     borderopacity="0.25"
     inkscape:showpageshadow="2"
     inkscape:pageopacity="0.0"
     inkscape:pagecheckerboard="0"
     inkscape:deskcolor="#d1d1d1"
     inkscape:document-units="mm"
     inkscape:zoom="1.7024288"
     inkscape:cx="189.72893"
     inkscape:cy="251.11182"
     inkscape:window-width="1803"
     inkscape:window-height="1125"
     inkscape:window-x="0"
     inkscape:window-y="0"
     inkscape:window-maximized="1"
     inkscape:current-layer="g74" />
  <metadata
     id="metadata1">
    <rdf:RDF>
      <cc:Work
         rdf:about="">
        <dc:format>image/svg+xml</dc:format>
        <dc:type
           rdf:resource="http://purl.org/dc/dcmitype/StillImage" />
      </cc:Work>
    </rdf:RDF>
  </metadata>
  <g
     transform="translate(-54.131229,-70.296251)"
     id="g74">
    <rect
       transform="rotate(90)"
       x="72.762001"
       y="-144.47"
       width="127.95"
       height="83.969002"
       ry="7.3912001"
       fill="#cccccc"
       stroke="#666666"
       stroke-width="4.9315"
       id="rect1" />
    <path
       d="m 62.524,160.9 80.028,-0.75102 c 0,0 3.1895,36.551 0.57991,38.053 l -2.6096,1.5021 -77.128,-0.75105 -3.7694,-5.2573 z"
       fill="#808000"
       opacity="0.3"
       stroke="#000000"
       stroke-width="0.24585px"
       id="path3" />
    <g
       id="g5">
      <rect
         transform="rotate(90)"
         x="72.762001"
         y="-144.47"
         width="127.95"
         height="83.969002"
         ry="7.3912001"
         fill="none"
         stroke="#666666"
         stroke-width="4.9315"
         id="rect3" />
      <path
         d="m 80.934,156.7 45.764,1.3681 7.6856,14.023 -61.484,-0.68402 z"
         fill="#4d4d4d"
         stroke="#000000"
         stroke-width="0.31541px"
         id="path5" />
    </g>
    <ellipse
       cx="103.28"
       cy="166.60001"
       rx="19.445999"
       ry="3.8254001"
       opacity="0.3"
       id="ellipse5" />
    <g
       stroke="#000000"
       id="g8">
      <path
         d="m 72.906,171.4 -5.1491,10.946 69.762,0.43574 -3.1433,-10.623"
         fill="#808080"
         stroke-width="0.33215px"
         id="path6" />
      <path
         d="m 67.757,182.35 -0.18437,1.8818 69.869,0.39618 0.0856,-1.9025"
         fill="#b3b3b3"
         stroke-width="0.31541px"
         id="path7" />
      <path
         d="m 84.093,172.39 39.007,0.41725 2.8443,8.7201 -45.672,-0.34417 z"
         fill="#cccccc"
         stroke-width="0.35384px"
         id="path8" />
    </g>
    <g
       fill="#008080"
       stroke="#008080"
       stroke-linecap="round"
       stroke-linejoin="round"
       stroke-width="0.60854"
       id="g22">
      <path
         d="m 99.332,173.72 -2.9077,-0.0249"
         id="path9" />
      <path
         d="m 98.416,176.75 0.5961,-2.1766"
         id="path10" />
      <path
         d="m 104.22,177.24 -2.9077,-0.0249"
         id="path11" />
      <path
         d="m 93.634,179.66 0.87786,-2.1766"
         id="path12" />
      <path
         d="m 97.539,180.1 -2.9077,-0.0249"
         id="path13" />
      <path
         d="m 104.87,173.74 -2.9077,-0.0249"
         id="path14" />
      <path
         d="m 105.01,176.77 0.37068,-2.4583"
         id="path15" />
      <path
         d="m 97.619,176.83 -2.9077,-0.0249"
         id="path16" />
      <path
         d="m 103.54,180.15 -2.9077,-0.0249"
         id="path17" />
      <path
         d="m 107.16,176.63 -0.11955,-2.4306"
         id="path18" />
      <path
         d="m 110.91,176.66 -2.9077,-0.0249"
         id="path19" />
      <path
         d="m 104.51,180.2 0.37068,-2.4583"
         id="path20" />
      <path
         d="m 111.84,176.58 -0.40131,-2.4306"
         id="path21" />
      <path
         d="m 112.34,180.01 -0.40131,-2.4306"
         id="path22" />
    </g>
    <g
       fill="#008080"
       stroke="#008080"
       stroke-linecap="round"
       stroke-linejoin="round"
       stroke-width="0.60854"
       id="g27">
      <path
         d="m 116.18,176.74 -0.73943,-2.487"
         id="path23" />
      <path
         d="m 119.98,176.99 -2.9077,-0.0249"
         id="path24" />
      <path
         d="m 121,176.86 -0.73943,-2.487"
         id="path25" />
      <path
         d="m 122.07,180.46 -0.73944,-2.487"
         id="path26" />
      <path
         d="m 119.27,173.89 -2.9077,-0.0249"
         id="path27" />
    </g>
    <g
       transform="matrix(0.10015,-6.8781e-4,6.8781e-4,0.10015,198.1,75.862)"
       id="g37">
      <path
         d="m -812.7,574.27 c 10.146,-64.939 26.602,-104.58 4.508,-190.93 -27.758,-46.496 -56.703,-43.457 -87.078,-80.682 -0.495,-22.531 -1.084,-43.114 -1.307,-67.185 -0.189,-19.007 -20.554,-20.558 -42.066,-20.037 l -0.015,-0.36 c -1.336,0.211 -2.763,0.363 -4.227,0.49 -4.539,0.153 -9.082,0.344 -13.446,0.443 -4.373,-0.018 -8.913,-0.131 -13.459,-0.199 -1.454,-0.109 -2.886,-0.228 -4.217,-0.42 l -0.002,0.359 c -21.543,-0.13 -41.868,1.786 -41.717,20.791 0.2,24.069 -0.02,44.646 -0.108,67.2 -29.692,37.765 -58.711,35.245 -85.63,82.208 -20.522,86.752 -3.358,126.06 7.947,190.82 8.601,86.446 -18.532,87.433 -11.085,247.5 0,70.591 79.621,86.599 150.75,86.599 71.128,0 156.66,-13.825 156.66,-89.344 4.583,-160.17 -22.563,-160.68 -15.507,-247.26 z"
         fill="#99fff0"
         id="path28" />
      <path
         d="m -812.7,574.27 c 10.146,-64.939 26.602,-104.58 4.508,-190.93 -27.758,-46.496 -56.703,-43.457 -87.078,-80.682 -0.495,-22.531 -1.084,-43.114 -1.307,-67.185 -0.189,-19.007 -20.554,-20.558 -42.066,-20.037 l -0.015,-0.36 c -1.336,0.211 -2.763,0.363 -4.227,0.49 -4.539,0.153 -9.082,0.344 -13.446,0.443 -4.373,-0.018 -8.913,-0.131 -13.459,-0.199 -1.454,-0.109 -2.886,-0.228 -4.217,-0.42 l -0.002,0.359 c -21.543,-0.13 -41.868,1.786 -41.717,20.791 0.2,24.069 -0.02,44.646 -0.108,67.2 -29.692,37.765 -58.711,35.245 -85.63,82.208 -20.522,86.752 -3.358,126.06 7.947,190.82 8.601,86.446 -18.532,87.433 -11.085,247.5 0,70.591 79.621,86.599 150.75,86.599 71.128,0 156.66,-13.825 156.66,-89.344 4.583,-160.17 -22.563,-160.68 -15.507,-247.26 z"
         fill="none"
         stroke="#231f20"
         stroke-linecap="round"
         stroke-linejoin="round"
         stroke-miterlimit="10"
         stroke-width="12.376"
         id="path29" />
      <path
         d="m -837.35,384.08 c -31.619,-40.601 -78.237,-43.035 -78.971,-85.28 -20.373,9.702 -55.832,10.123 -74.706,0.65458 2.5151,40.516 -60.303,58.145 -82.797,94.813 -24.739,48.75 -3.483,152.78 -3.483,152.78 l 52.343,112.71 h 108.31 l 89.506,-114.13 c 12.203,-95.874 1.0072,-147.16 -10.197,-161.55 z"
         enable-background="new    "
         fill="#00ff00"
         id="path30" />
      <path
         d="m -820.88,756.1 c -1.376,-49.433 -7.243,-73.229 -10.78,-97.233 -0.531,-3.659 -1.026,-7.339 -1.43,-11.102 0,0 -73.958,-34.182 -142.4,11.469 -33.215,22.154 -91.433,-10.369 -91.433,-10.369 -0.383,3.77 -0.812,7.455 -1.313,11.125 -3.287,24.03 -8.897,47.884 -9.752,97.326 0,0 41.325,-12.488 96.159,10.539 79.608,33.442 160.95,-11.755 160.95,-11.755 z"
         enable-background="new    "
         fill="#ff00ff"
         id="path31" />
      <path
         d="m -975.49,659.24 c 68.443,-45.65 142.4,-11.469 142.4,-11.469 -1.444,-13.404 -4.1304,-27.128 -2.4684,-47.105 1.9743,-18.437 3.2371,-36.395 8.4073,-55.033 0,0 -80.275,45.191 -156.94,0.97175 -51.458,-29.68 -93.214,0.448 -93.214,0.448 2.896,17.06 6.808,34.067 10.1,53.824 1.872,19.968 1.573,34.592 0.282,47.993 0,0.001 58.217,32.525 91.433,10.37 z"
         enable-background="new    "
         fill="#ffff00"
         id="path32" />
      <path
         d="m -820.79,760.69 c -0.021,-1.521 -0.068,-3.097 -0.091,-4.583 0,0 -81.342,45.196 -160.95,11.755 -54.834,-23.027 -96.159,-10.539 -96.159,-10.539 -0.022,1.49 -0.028,3.061 -0.048,4.594 -0.153,14.498 0.073,31.016 0.876,50.343 0,54.962 81.585,67.332 128.85,67.332 52.44,0 127.18,-10.913 127.18,-68.535 0.168,-19.346 0.636,-35.867 0.341,-50.367 z"
         fill="#ff0000"
         id="path33" />
      <path
         d="m -1076.4,555.28 c -10.362,-43.07 -12.239,-91.328 -7.4717,-136.98 55.436,5.3732 64.225,33.398 115.81,36.072 39.382,0.99621 116.22,-42.968 144.92,-34.174 4.9573,38.72 4.2447,68.492 -4.0558,125.44 -30.143,18.315 -56.931,23.025 -87.074,22.018 -43.584,-0.12238 -62.113,-21.568 -109.48,-32.908 -20.674,-4.5939 -33.316,5.2316 -52.649,20.538 z"
         fill="#ff7400"
         id="path34" />
      <g
         stroke="#231f20"
         id="g36">
        <path
           d="m -879.09,260.43 -4.673,-67.715 c 0.526,-14.221 -26.441,-28.291 -69.154,-29.874 -42.711,-1.583 -71.475,9.104 -72.002,23.327 l -8.838,68.531 c -0.53,14.24 33.667,27.057 76.377,28.633 42.711,1.59 77.761,-8.662 78.29,-22.902 z"
           fill="#99fff0"
           stroke-miterlimit="10"
           stroke-width="12.375"
           id="path35" />
        <path
           d="m -879.33,233.13 0.578,-69.009 c 0.117,-14.232 -34.43,-26.07 -77.171,-26.425 -42.738,-0.36 -77.477,10.896 -77.6,25.124 l -0.578,69.01 c -0.121,14.25 34.428,26.083 77.165,26.434 42.743,0.367 77.485,-10.887 77.606,-25.134 z"
           fill="#2479b3"
           stroke-miterlimit="10"
           stroke-width="12.375"
           id="path36" />
        <ellipse
           cx="-956.91998"
           cy="159.66"
           rx="76.769997"
           ry="24.052"
           fill="#3f9ad8"
           stroke-width="10.314"
           id="ellipse36" />
      </g>
      <path
         d="m -913.02,379.91 c 3.848,-13.089 5.3951,-18.838 31.111,-15.29 52.269,36.18 45.525,62.941 44.729,108.83 -2.0682,18.178 -42.622,14.441 -43.146,4.266 5.7632,-43.652 2.2307,-75.153 -32.694,-97.806 z"
         fill="#ffffff"
         id="path37" />
    </g>
    <g
       id="g68">
      <g
         transform="matrix(0.27114,0,0,0.25972,-65.044,110.9)"
         aria-label="Ani Himawati 18/15/2017  235g "
         id="g62">
        <path
           d="m 589.29,138.36 c 6.9295,-1.6276 5.3806,10.649 -0.51974,8.0096 -3.5094,1.247 1.2817,-6.8882 0.51974,-8.0096 z m 0.89844,4.7656 c 6.0855,-1.2013 -3.4544,-6.4361 0,0 z"
           id="path38" />
        <path
           d="m 595.59,139.99 c 6.4923,-4.2062 4.7595,12.129 2.34,1.1979 -1.6668,7.3604 -5.1286,3.1312 -2.4885,-1.0725 z"
           id="path39" />
        <path
           d="m 602.93,140.31 c 3.361,8.9627 -6.1891,4.5247 0,0 z m -1.1719,-2.3242 c 5.4281,-1.688 -1.5745,5.1653 0,0 z"
           id="path40" />
        <path
           d="m 609.99,136.77 c 1.1326,7.0253 7.2631,-1.5338 3.9151,7.5862 -5.8535,6.4331 -5.5093,-4.3622 -3.9151,-7.5862 z"
           id="path41" />
        <path
           d="m 616.99,140.31 c 3.361,8.9627 -6.1891,4.5247 0,0 z m -1.1719,-2.3242 c 5.4281,-1.688 -1.5745,5.1653 0,0 z"
           id="path42" />
        <path
           d="m 619.4,140.04 c 5.8743,-5.3944 7.4744,11.101 4.6194,1.96 -3.2018,5.5657 -2.7894,-0.63551 -5.3016,3.9303 -0.92555,-1.7008 -1.238,-4.7567 0.68215,-5.8903 z"
           id="path43" />
        <path
           d="m 626.43,140.92 c 8.5916,-5.9536 -0.80278,14.016 2.3959,1.4075 2.1832,-1.2791 -2.7898,-1.5483 -2.3959,-1.4075 z m 2.6237,3.099 c -5.3288,-0.62205 2.4995,3.9332 0,0 z"
           id="path44" />
        <path
           d="m 632.2,140.04 c -0.0465,8.0129 10.926,-2.7457 4.0363,7.1077 -3.6646,1.6575 -6.7756,-4.7004 -4.0363,-7.1077 z"
           id="path45" />
        <path
           d="m 639.42,140.92 c 8.5916,-5.9536 -0.80273,14.016 2.396,1.4075 2.1833,-1.2791 -2.7899,-1.5483 -2.396,-1.4075 z m 2.6237,3.099 c -5.3288,-0.62206 2.4995,3.9332 0,0 z"
           id="path46" />
        <path
           d="m 645.52,137.74 c 5.2074,7.5139 -1.5284,13.154 -1.2781,2.7111 z"
           id="path47" />
        <path
           d="m 651.47,140.31 c 3.3608,8.9631 -6.1892,4.5242 0,0 z m -1.1719,-2.3242 c 5.4281,-1.688 -1.5745,5.1653 0,0 z"
           id="path48" />
        <path
           d="m 591.17,154.32 c 6.1419,7.119 -4.5336,12.257 0,0 z"
           id="path49" />
        <path
           d="m 598.17,154.23 c 9.0527,12.255 -12.068,9.7074 -1.964,-0.4273 z m -2.1029,1.1849 c -2.5758,6.586 6.778,-0.66972 0,0 z m 0.007,4.2643 c -4.6604,6.8419 8.8037,-0.71635 0,0 z"
           id="path50" />
        <path
           d="m 605.1,153.48 c 1.4249,9.915 -8.4766,11.224 0,0 z"
           id="path51" />
        <path
           d="m 607.78,154.32 c 6.1419,7.119 -4.5336,12.257 0,0 z"
           id="path52" />
        <path
           d="m 617.19,154.49 c -10.614,1.2001 3.7365,7.3358 -4.2305,8.2382 -0.34307,-2.1357 -7.2756,-9.8376 2.1255,-9.4209 z"
           id="path53" />
        <path
           d="m 621.64,153.48 c 1.4251,9.9151 -8.4769,11.224 0,0 z"
           id="path54" />
        <path
           d="m 622.84,156.67 c 5.8195,-9.0475 8.5737,9.9745 2.8368,6.2582 -8.0749,-0.41139 9.3572,-7.64 -2.8368,-6.2582 z"
           id="path55" />
        <path
           d="m 634.7,153.87 c 11.811,5.1278 -10.294,15.674 -3.8265,1.6269 0.72829,-1.2725 2.347,-2.2257 3.8265,-1.6269 z m -0.7552,2.0833 c -8.9811,8.6479 10.732,6.5005 0,0 z"
           id="path56" />
        <path
           d="m 640.21,154.32 c 6.1419,7.119 -4.5336,12.257 0,0 z"
           id="path57" />
        <path
           d="m 644.02,153.74 c 10.36,-2.5717 -1.8258,15.648 2.2436,2.6725 -3.1124,3.0952 -6.2512,-1.1666 -2.2436,-2.6725 z"
           id="path58" />
        <path
           d="m 598.92,171.76 c 2.2879,-12.93 18.329,5.7208 4.8792,6.4335 13.81,5.5513 -12.46,5.3611 -0.0904,-2.8448 6.2439,-6.8593 -3.6276,-1.6106 -4.7888,-3.5887 z"
           id="path59" />
        <path
           d="m 612.13,168.02 c 10.931,-1.1191 4.7699,20.955 -0.19132,11.263 9.0709,-0.0962 -3.361,-8.4731 0.47242,-7.8188 -2.9188,1.0109 -2.9461,-3.3876 -0.2811,-3.4438 z"
           id="path60" />
        <path
           d="m 630.29,168.53 c -2.6753,3.1106 -14.475,3.4891 -3.3134,5.4206 6.5625,5.3894 -7.875,12.002 -0.95962,3.5764 -13.782,-1.3652 -4.3818,-15.856 4.273,-8.997 z"
           id="path61" />
        <path
           d="m 638.25,172.08 c 9.4939,4.7142 -5.0771,20.377 -3.6456,10.3 -8.8189,-2.2806 -3.2607,-13.075 3.6456,-10.3 z m -1.0002,3.0104 c -10.292,-0.38446 4.4305,11.876 0,0 z"
           id="path62" />
      </g>
      <g
         transform="matrix(0,-0.36127,0.3537,0,52.93,353.52)"
         opacity="0.9"
         aria-label="A1234      "
         id="g67">
        <path
           d="m 591.1,132.09 c 7.0904,-8.5667 12.558,14.284 8.0089,15.566 -3.8066,-6.3512 -7.978,-0.98635 -11.042,0.60378 -0.3685,-5.5152 2.069,-10.81 3.033,-16.17 z m 1.8349,9.7331 c 8.8614,1.8403 -1.6569,-14.985 -0.56076,-1.8288 l 0.049,1.0001 z"
           id="path63" />
        <path
           d="m 605.1,130.29 c 7.5764,-0.4204 1.9422,21.729 -0.93378,16.77 2.691,-5.9223 -3.8883,-13.144 0.93378,-16.77 z"
           id="path64" />
        <path
           d="m 609.78,135.08 c -0.13022,-12.798 22.214,-4.8938 12.486,4.8915 -4.8884,3.6192 -7.4125,5.4513 -0.25245,6.1546 1.2434,8.9357 -20.929,-0.26011 -6.8624,-3.9091 8.1726,-3.1838 1.9431,-13.145 -2.311,-5.0726 -1.4637,0.8106 -3.1015,-0.48753 -3.0597,-2.0644 z"
           id="path65" />
        <path
           d="m 628.04,129.91 c 8.8486,-2.9953 5.1773,9.0494 9.9119,12.349 1.4782,8.0988 -16.023,9.1481 -10.445,2.6576 8.8459,2.138 6.6931,-6.6123 -0.4384,-6.7505 5.3415,-4.8506 1.7862,-2.9802 -1.9276,-5.9961 0.13128,-1.9418 1.6999,-1.8392 2.8988,-2.2604 z"
           id="path66" />
        <path
           d="m 642.45,129.46 c -1.7136,5.0119 1.6033,16.012 4.4653,5.968 9.1987,-6.4548 1.5988,22.758 -1.8995,9.5475 -8.0898,-0.90002 -9.0777,-13.379 -2.5658,-15.516 z"
           id="path67" />
      </g>
    </g>
  </g>
  <g
     id="basic-tip-1"
     title="Vertical photos work best"
     transform="translate(3.9017713,-2.5105858e-4)"
     alt="Tip 1: Vertical photos work best"
     style="cursor:pointer">
    <circle
       style="fill:#eeaacc;fill-opacity:0.8;stroke-width:0.32991"
       id="path74"
       cx="2.8906624"
       cy="13.94457"
       r="6.7924337" />
    <text
       xml:space="preserve"
       style="font-size:11.3036px;fill:#ffffff;fill-opacity:0.8;stroke-width:0.941962"
       x="-0.75986552"
       y="17.690016"
       id="text74"><tspan
         sodipodi:role="line"
         id="tspan74"
         style="font-style:normal;font-variant:normal;font-weight:normal;font-stretch:normal;font-family:Mulish;-inkscape-font-specification:Mulish;fill:#ffffff;stroke-width:0.941962"
         x="-0.75986552"
         y="17.690016">1</tspan></text>
  </g>
  <g
     title="2 - Write the weight and serial clearly."
     id="basic-tip-2"
     alt="2 - Write the weight and serial clearly"
     transform="translate(8.3960635,-3.9900509)"
     style="cursor:pointer">
    <circle
       style="fill:#eeaacc;fill-opacity:0.8;stroke-width:0.32991"
       id="circle74"
       cx="55.510242"
       cy="71.68618"
       r="6.7924337" />
    <text
       xml:space="preserve"
       style="font-size:11.3036px;fill:#ffffff;fill-opacity:0.8;stroke-width:0.941962"
       x="52.04731"
       y="75.570045"
       id="text75"><tspan
         sodipodi:role="line"
         id="tspan75"
         style="font-style:normal;font-variant:normal;font-weight:normal;font-stretch:normal;font-family:Mulish;-inkscape-font-specification:Mulish;fill:#ffffff;stroke-width:0.941962"
         x="52.04731"
         y="75.570045">2</tspan></text>
  </g>
  <circle
     style="fill:#eeaacc;fill-opacity:0.8;stroke-width:0.32991"
     id="circle75"
     cx="35.754292"
     cy="92.825432"
     r="6.7924337" />
  <text
     xml:space="preserve"
     style="font-size:11.3036px;fill:#ffffff;fill-opacity:0.8;stroke-width:0.941962"
     x="32.291363"
     y="96.709297"
     id="text76"><tspan
       sodipodi:role="line"
       id="tspan76"
       style="font-style:normal;font-variant:normal;font-weight:normal;font-stretch:normal;font-family:Mulish;-inkscape-font-specification:Mulish;fill:#ffffff;stroke-width:0.941962"
       x="32.291363"
       y="96.709297">3</tspan></text>
  <circle
     style="fill:#eeaacc;fill-opacity:0.8;stroke-width:0.32991"
     id="circle76"
     cx="60.117451"
     cy="21.12681"
     r="6.7924337" />
  <text
     xml:space="preserve"
     style="font-size:11.3036px;fill:#ffffff;fill-opacity:0.8;stroke-width:0.941962"
     x="56.654522"
     y="25.010675"
     id="text77"><tspan
       sodipodi:role="line"
       id="tspan77"
       style="font-style:normal;font-variant:normal;font-weight:normal;font-stretch:normal;font-family:Mulish;-inkscape-font-specification:Mulish;fill:#ffffff;stroke-width:0.941962"
       x="56.654522"
       y="25.010675">4</tspan></text>
</svg>
