<?xml version="1.0" encoding="UTF-8" standalone="no"?>
<!-- Created with Inkscape (http://www.inkscape.org/) -->

<svg
   width="158.58525mm"
   height="62.919769mm"
   version="1.1"
   viewBox="0 0 158.58525 62.919773"
   id="svg145"
   sodipodi:docname="message-sent-night.svg"
   inkscape:version="1.4 (1:1.4+202410161351+e7c3feb100)"
   xmlns:inkscape="http://www.inkscape.org/namespaces/inkscape"
   xmlns:sodipodi="http://sodipodi.sourceforge.net/DTD/sodipodi-0.dtd"
   xmlns="http://www.w3.org/2000/svg"
   xmlns:svg="http://www.w3.org/2000/svg">
  <sodipodi:namedview
     id="namedview145"
     pagecolor="#ffffff"
     bordercolor="#000000"
     borderopacity="0.25"
     inkscape:showpageshadow="2"
     inkscape:pageopacity="0.0"
     inkscape:pagecheckerboard="0"
     inkscape:deskcolor="#d1d1d1"
     inkscape:document-units="mm"
     inkscape:zoom="1.1391524"
     inkscape:cx="388.00779"
     inkscape:cy="224.28957"
     inkscape:window-width="1803"
     inkscape:window-height="1125"
     inkscape:window-x="0"
     inkscape:window-y="0"
     inkscape:window-maximized="1"
     inkscape:current-layer="svg145" />
  <defs
     id="defs11">
    <linearGradient
       id="linearGradient50606"
       x1="421.45999"
       x2="458.98999"
       y1="81.216003"
       y2="80.958"
       gradientTransform="matrix(0.36219,-0.0075634,0.0085593,0.45242,-122.38,55.957)"
       gradientUnits="userSpaceOnUse">
      <stop
         stop-color="#d1a448"
         offset="0"
         id="stop1" />
      <stop
         stop-color="#9b7527"
         stop-opacity=".9918"
         offset="1"
         id="stop2" />
    </linearGradient>
    <linearGradient
       id="linearGradient33560"
       x1="439.64001"
       x2="412.56"
       y1="53.484001"
       y2="53.870998"
       gradientTransform="matrix(0.36219,-0.0075634,0.0085593,0.45242,-123.44,56.069)"
       gradientUnits="userSpaceOnUse">
      <stop
         stop-color="#96312a"
         offset="0"
         id="stop3" />
      <stop
         stop-color="#65211c"
         stop-opacity=".9959"
         offset="1"
         id="stop4" />
    </linearGradient>
    <linearGradient
       id="linearGradient33562"
       x1="419.64999"
       x2="452.28"
       y1="64.963997"
       y2="65.350998"
       gradientTransform="matrix(0.36219,-0.0071478,0.0085593,0.42756,-122.85,57.356)"
       gradientUnits="userSpaceOnUse">
      <stop
         stop-color="#c33f37"
         offset="0"
         id="stop5" />
      <stop
         stop-color="#b33a33"
         stop-opacity=".98039"
         offset="1"
         id="stop6" />
    </linearGradient>
    <linearGradient
       id="linearGradient15121"
       x1="367.10999"
       x2="367.22"
       y1="87.487"
       y2="90.810997"
       gradientUnits="userSpaceOnUse">
      <stop
         stop-color="#916f6f"
         offset="0"
         id="stop7" />
      <stop
         stop-color="#685050"
         stop-opacity=".9918"
         offset="1"
         id="stop8" />
    </linearGradient>
    <clipPath
       id="clipPath14">
      <ellipse
         transform="matrix(0.9996,0.028384,-0.013912,0.9999,0,0)"
         cx="106.13"
         cy="91.443001"
         rx="117.86"
         ry="38.66"
         fill="#00ffff"
         stroke-width="0.32164"
         id="ellipse8" />
    </clipPath>
    <filter
       id="filter37"
       x="0"
       y="0"
       width="1"
       height="1"
       color-interpolation-filters="sRGB">
      <feColorMatrix
         values="1 0 0 -0.185732 -0 0 1 0 -0.185732 -0 0 0 1 -0.185732 -0 0 0 0 1 0"
         id="feColorMatrix8" />
    </filter>
    <filter
       id="filter38"
       x="-0.0085321581"
       y="-0.0082565416"
       width="1.0170484"
       height="1.0082566"
       color-interpolation-filters="sRGB">
      <feColorMatrix
         values="1 0 0 -0.185732 -0 0 1 0 -0.185732 -0 0 0 1 -0.185732 -0 0 0 0 1 0"
         id="feColorMatrix9" />
    </filter>
    <filter
       id="filter39"
       x="0"
       y="0"
       width="1"
       height="1"
       color-interpolation-filters="sRGB">
      <feColorMatrix
         values="1 0 0 -0.156224 -0 0 1 0 -0.156224 -0 0 0 1 -0.156224 -0 0 0 0 1 0"
         id="feColorMatrix10" />
    </filter>
    <filter
       id="filter40"
       x="-0.0018578861"
       y="-0.0014373991"
       width="1.0037158"
       height="1.0034285"
       color-interpolation-filters="sRGB">
      <feColorMatrix
         values="1 0 0 -0.156224 -0 0 1 0 -0.156224 -0 0 0 1 -0.156224 -0 0 0 0 1 0"
         id="feColorMatrix11" />
    </filter>
  </defs>
  <g
     transform="matrix(0.87941693,0,0,1,-11.674261,-42.158998)"
     style="mix-blend-mode:difference"
     id="g33">
    <ellipse
       cx="103.44"
       cy="70.320999"
       rx="90.165001"
       ry="28.162001"
       fill-opacity="0.8"
       stroke-width="0.2401"
       id="ellipse11" />
    <g
       transform="matrix(0.92895,-0.020679,0.012925,0.72824,6.7956,3.7091)"
       clip-path="url(#clipPath14)"
       fill="#32c63d"
       id="g16">
      <path
         d="m 80.205,119.5 c 0.78266,-2.441 0.81359,-1.1754 0.65624,-0.19034 0.77965,-1.7561 -0.32288,1.803 0.76204,-0.35445 -0.75132,2.4271 1.2715,-2.1531 0.33244,0.5636 1.0464,-1.8257 1.165,-2.0814 0.37675,0.0521 0.44508,-0.57094 1.0677,-1.6394 0.39586,0.51681 0.64173,-0.43065 0.47837,-0.97874 0.49353,0.0549 0.88314,-0.46552 -0.51607,1.2081 0.83446,-0.22535 -0.0797,0.75977 0.3853,0.10695 -0.25842,1.6837 0.81951,-1.2176 1.1522,-2.6355 0.7097,-0.38257 1.3613,-2.2495 -0.09093,1.4581 1.1948,-0.9864 0.05491,0.32522 -0.14729,1.5382 -0.22208,2.224"
         fill="#32c63d"
         stroke-opacity="0"
         id="path11" />
      <path
         d="m 23.066,118.44 c 2.1259,-2.8852 -0.43368,-10.488 6.2176,-12.782 l 0.56058,1.7068 c 6.613,-1.8719 5.6384,-0.5814 6.6693,1.4147 1.5957,-3.9695 5.014,-4.3044 8.2441,-5.0149 8.2767,-0.86306 7.3899,4.0338 9.8397,6.8333 2.3327,-2.4244 3.9663,-6.9934 9.5577,-2.9283 1.9929,-3.972 4.0214,-7.7994 8.785,-0.51663 3.1456,-5.3403 5.711129,-0.0566 7.828229,3.35777 5.089526,0.63029 4.704763,8.57715 6.310471,15.74953 z"
         fill="#16561a"
         stroke-width="0.32162"
         id="path12"
         sodipodi:nodetypes="ccccccccccc" />
      <path
         d="m 9.0677,127.45 c -2.6365,-6.3204 27.569,-15.03 37.542,-15.489 16.721,-0.76192 39.3,6.6615 44.083,15.534 0.2996,0.55578 0.16868,0.31312 0.38521,0.78324 0.28639,0.6218 0.38004,1.2773 -0.0052,1.5815 -14.96,12.445 -66.933,11.824 -82.006,-2.4102 z"
         fill="#008409"
         id="path13" />
      <path
         d="m 28.658,116.04 c -0.50948,-2.5589 -0.67781,-1.3119 -0.62917,-0.30821 -0.58102,-1.8804 0.12358,1.8434 -0.71609,-0.48995 0.47994,2.5394 -1.0249,-2.3632 -0.39054,0.49711 -0.83757,-1.9981 -0.92721,-2.2728 -0.37876,-0.0173 -0.37864,-0.64637 -0.87894,-1.8175 -0.44824,0.43922 -0.58864,-0.54341 -0.36724,-1.0561 -0.49471,-0.0358 -0.8239,-0.62205 0.37962,1.2899 -0.80184,-0.37544 -0.0037,0.76654 -0.39321,0.0355 0.07271,1.7136 -0.67907,-1.3547 -0.85424,-2.8188 -0.66119,-0.50827 -1.1034,-2.475 -0.0686,1.4597 -1.0759,-1.1944 -0.08979,0.31182 -0.02151,1.5493 -0.02206,2.2417"
         fill="#008409"
         stroke-opacity="0"
         id="path14" />
      <path
         d="m 175.32,130.53 c 0.63699,-5.3569 3.0628,-14.217 -4.8752,-11.022 l -0.29766,-4.6829 c -6.3452,-3.0854 -3.4943,-1.5688 -4.7294,0.21509 -1.1529,-4.2269 -4.3756,-2.5316 -7.4967,-3.8368 -4.6285,-5.1958 -7.8744,-0.0478 -10.6,2.267 -2.0485,-2.8347 0.12337,-8.5676 -5.8487,-5.5854 -1.0198,-2.8389 -3.5257,-3.1504 -6.6721,-2.6303 -1.6232,0.26829 -3.3956,-0.7641 -5.2668,1.3873 -2.5399,-5.8727 -5.07264,-4.64517 -7.53554,-1.65967 l -0.57638,4.97409 c -8.861,3.295 -5.43764,8.30319 -7.93858,12.96578 z"
         fill="#16561a"
         stroke-width="0.32162"
         id="path15"
         sodipodi:nodetypes="cccccccsccccc" />
      <path
         d="m 185.95,134.06 c 2.8102,-6.1657 -27.129,-16.584 -37.082,-17.608 -16.687,-1.7106 -39.454,4.4252 -44.481,13.02 -0.31483,0.53833 -0.17725,0.3033 -0.40669,0.76075 -0.30346,0.60506 -0.41527,1.2547 -0.039,1.5805 14.602,13.284 66.552,15.615 82.008,2.247 z"
         fill="#008409"
         id="path16" />
    </g>
    <g
       transform="translate(-0.69493,-5.1774)"
       fill="#fbc02d"
       style="mix-blend-mode:difference"
       id="g32">
      <path
         d="m 77.652,64.091 c -0.54276,-0.02542 -1.0345,-0.1814 -1.4709,-0.46665 -0.44097,-0.28821 -0.77949,-0.66864 -1.0151,-1.1407 -0.15942,-0.3195 -0.25144,-0.64276 -0.29118,-1.0229 -0.01024,-0.09691 -0.01002,-0.43517 0,-0.52679 0.01326,-0.11865 0.02508,-0.20192 0.04021,-0.28117 0.15798,-0.82707 0.66936,-1.545 1.4021,-1.9681 0.06857,-0.03961 0.29833,-0.15386 0.30942,-0.15386 0.0035,0 -0.0184,0.05131 -0.0488,0.11395 -0.15032,0.30981 -0.23589,0.61724 -0.27058,0.97221 -0.01141,0.11695 -0.0098,0.40488 0.0032,0.52383 0.06237,0.57676 0.27366,1.0769 0.64377,1.5242 0.06612,0.07991 0.25882,0.27167 0.34262,0.34094 0.18278,0.15115 0.34378,0.25663 0.54456,0.35675 0.31293,0.15605 0.61382,0.2435 0.97364,0.28301 0.09497,0.01047 0.46861,0.01047 0.55343,2.07e-4 0.24026,-0.02929 0.41144,-0.06608 0.60214,-0.12911 0.12066,-0.03986 0.20509,-0.07462 0.33698,-0.13856 0.1129,-0.05475 0.11903,-0.05705 0.11374,-0.04182 -0.0149,0.04287 -0.12811,0.26315 -0.17679,0.34413 -0.29288,0.4872 -0.70941,0.87014 -1.2164,1.1183 -0.32562,0.15942 -0.67038,0.25407 -1.0329,0.28357 -0.08461,0.0069 -0.27754,0.01165 -0.34329,0.0088 z"
         opacity="0.79214"
         stroke-width="0.0073911"
         id="path17" />
      <path
         d="m 125.15,60.837 c -0.0266,-0.25973 -0.12165,-0.51859 -0.25421,-0.6909 -0.16942,-0.22041 -0.45881,-0.3679 -0.80925,-0.41247 l -0.15634,-0.01984 0.14171,-0.01951 c 0.19252,-0.02657 0.33069,-0.06659 0.48112,-0.13897 0.10142,-0.04884 0.15252,-0.08672 0.25759,-0.19095 0.11147,-0.11059 0.14137,-0.15139 0.19974,-0.27288 0.32874,-0.82093 -0.0206,-0.67922 0.31428,0.01412 0.0497,0.10067 0.0899,0.15479 0.18435,0.24893 0.0664,0.06625 0.15959,0.14312 0.20705,0.17093 0.12486,0.07322 0.3154,0.13437 0.5095,0.16353 l 0.16943,0.02557 -0.14823,0.0185 c -0.35428,0.04449 -0.64751,0.19478 -0.81511,0.41771 -0.13349,0.17759 -0.20356,0.35821 -0.24496,0.63129 l -0.0252,0.16673 z"
         opacity="0.90921"
         stroke-width="0.01504"
         id="path18" />
      <path
         d="M 68.8,70.26 C 68.78358,70.09984 68.72488,69.94027 68.6433,69.83405 68.53883,69.69816 68.36042,69.60723 68.14436,69.57973 L 68.048,69.56746 68.13538,69.55544 c 0.11868,-0.01636 0.20386,-0.04099 0.29659,-0.08575 0.0625,-0.03015 0.09406,-0.05345 0.15882,-0.11771 0.06873,-0.06812 0.08718,-0.09336 0.12314,-0.16824 0.20266,-0.5061 -0.01254,-0.41874 0.19373,0.0087 0.03079,0.06207 0.05535,0.09549 0.11367,0.15349 0.04098,0.04079 0.0984,0.08825 0.12768,0.10538 0.07692,0.04514 0.19442,0.08283 0.31411,0.10083 l 0.10443,0.01585 -0.09131,0.01151 c -0.21845,0.02744 -0.39922,0.12006 -0.50253,0.25752 -0.08234,0.1095 -0.12553,0.22083 -0.15106,0.38921 l -0.01566,0.10278 z"
         opacity="0.90921"
         stroke-width="0.012196"
         id="path19" />
      <path
         d="m 41.921,70.818 c -0.0208,-0.20446 -0.0958,-0.40819 -0.20006,-0.54381 -0.13337,-0.17353 -0.36114,-0.2896 -0.63698,-0.32468 l -0.12307,-0.01547 0.11149,-0.01548 c 0.15153,-0.02085 0.26028,-0.0524 0.3787,-0.10948 0.0798,-0.03838 0.11998,-0.06825 0.20275,-0.15028 0.0877,-0.08695 0.11123,-0.1191 0.15722,-0.21479 0.25871,-0.64615 -0.0162,-0.53459 0.24735,0.01144 0.0391,0.07916 0.0708,0.12176 0.14509,0.19592 0.0523,0.05213 0.1256,0.11264 0.16301,0.13457 0.0983,0.05758 0.24825,0.10576 0.40101,0.12869 l 0.13337,0.02018 -0.11672,0.01446 c -0.27886,0.03497 -0.50966,0.15327 -0.64158,0.32878 -0.10514,0.13978 -0.16023,0.28192 -0.19282,0.49692 l -0.0198,0.13121 z"
         opacity="0.90921"
         stroke-width="0.011838"
         id="path20" />
      <path
         d="m 81.89,71.2 c 0.01837,-0.17826 0.08353,-0.35585 0.17442,-0.47409 0.11626,-0.15124 0.31482,-0.25244 0.55531,-0.28305 L 82.727,70.42919 82.62976,70.4158 c -0.1321,-0.01831 -0.2269,-0.04565 -0.33012,-0.09535 -0.06957,-0.03348 -0.10467,-0.0595 -0.17678,-0.13101 -0.07648,-0.07583 -0.09701,-0.10387 -0.13705,-0.18725 -0.22557,-0.5633 0.01398,-0.46606 -0.21562,0.0093 -0.03414,0.06914 -0.06169,0.10623 -0.1265,0.17081 -0.04559,0.04546 -0.10954,0.09816 -0.14212,0.1173 -0.08567,0.05021 -0.21638,0.09218 -0.34958,0.11221 l -0.11626,0.01749 0.10172,0.01285 c 0.24312,0.03059 0.44429,0.13364 0.5593,0.28664 0.09163,0.12183 0.1397,0.24576 0.16812,0.43318 l 0.01723,0.1144 z"
         opacity="0.90921"
         stroke-width="0.0095588"
         id="path21" />
      <path
         d="m 64.621,58.743 c 0.01927,-0.18879 0.08847,-0.37693 0.18475,-0.50216 0.12315,-0.16019 0.33347,-0.2674 0.58818,-0.29979 l 0.11361,-0.01455 -0.10298,-0.01432 c -0.13993,-0.01949 -0.24034,-0.04837 -0.34968,-0.10103 -0.07368,-0.0355 -0.11084,-0.06299 -0.18722,-0.13878 -0.08103,-0.08029 -0.10277,-0.11002 -0.14517,-0.19832 -0.23893,-0.59666 0.0148,-0.49366 -0.22842,0.01032 -0.03616,0.07311 -0.06527,0.11251 -0.13399,0.18095 -0.0483,0.04809 -0.11601,0.10401 -0.15052,0.12423 -0.09074,0.05325 -0.22922,0.09767 -0.3703,0.11887 l -0.12312,0.01855 0.10772,0.01361 c 0.25751,0.03231 0.47062,0.14156 0.59243,0.3036 0.09703,0.12909 0.14798,0.26036 0.17806,0.45884 l 0.01829,0.12115 z"
         opacity="0.90921"
         stroke-width="0.01566"
         id="path22" />
      <path
         d="m 140.54,58.93 c 0.0223,-0.21822 0.10227,-0.43567 0.21354,-0.58042 0.14233,-0.18514 0.38543,-0.30905 0.67983,-0.34651 l 0.13133,-0.01665 -0.11905,-0.01643 c -0.16171,-0.02238 -0.27778,-0.05592 -0.40416,-0.11678 -0.0852,-0.04099 -0.12811,-0.07284 -0.21639,-0.16039 -0.0936,-0.09284 -0.11876,-0.12718 -0.16778,-0.22923 -0.27617,-0.6896 0.0171,-0.57059 -0.26401,0.01192 -0.0418,0.08455 -0.0755,0.13005 -0.15485,0.20914 -0.0558,0.0556 -0.13409,0.12019 -0.17397,0.14358 -0.10491,0.06151 -0.26494,0.11288 -0.42799,0.13739 l -0.14233,0.02135 0.12451,0.01561 c 0.29764,0.03742 0.54394,0.16361 0.68478,0.35089 0.11214,0.14918 0.17102,0.30092 0.20578,0.53034 l 0.0212,0.14005 z"
         opacity="0.90921"
         stroke-width="0.020683"
         id="path23" />
      <path
         d="m 133.22,70.536 c 0.0188,-0.18407 0.0862,-0.36748 0.18009,-0.48958 0.12009,-0.15618 0.32514,-0.2607 0.57349,-0.29229 l 0.11076,-0.01419 -0.10042,-0.01396 c -0.13642,-0.01899 -0.23433,-0.04716 -0.34091,-0.0985 -0.0719,-0.03461 -0.10809,-0.06141 -0.18255,-0.13531 -0.079,-0.07828 -0.10017,-0.10726 -0.14153,-0.19336 -0.23294,-0.58172 0.0144,-0.48129 -0.22269,0.01007 -0.0352,0.07128 -0.0637,0.10969 -0.13063,0.17642 -0.0471,0.04688 -0.11311,0.1014 -0.14675,0.12111 -0.0885,0.05191 -0.22349,0.09522 -0.36103,0.11589 l -0.12007,0.01809 0.10505,0.01327 c 0.25104,0.03149 0.45884,0.138 0.5776,0.29599 0.0946,0.12586 0.14426,0.25384 0.1736,0.44736 l 0.0178,0.11812 z"
         opacity="0.90921"
         stroke-width="0.01566"
         id="path24" />
      <path
         d="m 156.5,77.742 c -0.0208,-0.20446 -0.0958,-0.40819 -0.20006,-0.54381 -0.13337,-0.17353 -0.36114,-0.2896 -0.63698,-0.32468 l -0.12307,-0.01547 0.11149,-0.01548 c 0.15153,-0.02085 0.26028,-0.0524 0.3787,-0.10948 0.0798,-0.03838 0.11998,-0.06825 0.20275,-0.15028 0.0877,-0.08695 0.11123,-0.1191 0.15722,-0.21479 0.25871,-0.64615 -0.0162,-0.53459 0.24735,0.01144 0.0391,0.07916 0.0708,0.12176 0.14509,0.19592 0.0523,0.05213 0.1256,0.11264 0.16301,0.13457 0.0983,0.05758 0.24825,0.10576 0.40101,0.12869 l 0.13337,0.02018 -0.11672,0.01446 c -0.27886,0.03497 -0.50966,0.15327 -0.64158,0.32878 -0.10514,0.13978 -0.16023,0.28192 -0.19282,0.49692 l -0.0198,0.13121 z"
         opacity="0.90921"
         stroke-width="0.011838"
         id="path25" />
      <g
         fill-opacity="0.67168"
         stroke-width="0.011838"
         id="g31">
        <path
           d="m 163.19,68.468 c -0.0208,-0.20447 -0.0959,-0.4082 -0.20006,-0.5438 -0.13336,-0.1735 -0.36114,-0.2896 -0.63698,-0.32468 l -0.12307,-0.01581 0.1115,-0.01547 c 0.15152,-0.02086 0.26028,-0.05238 0.37866,-0.10945 0.0798,-0.03841 0.12001,-0.06828 0.20275,-0.15031 0.0877,-0.08695 0.11126,-0.11911 0.15721,-0.21476 0.25875,-0.64617 -0.0162,-0.53463 0.24735,0.01143 0.0392,0.07918 0.0708,0.12176 0.1451,0.19592 0.0523,0.05214 0.12563,0.11264 0.16303,0.13458 0.0983,0.05758 0.24823,0.10574 0.40103,0.12868 l 0.13336,0.02018 -0.11671,0.01446 c -0.27888,0.03498 -0.50967,0.15332 -0.64159,0.32878 -0.10514,0.13979 -0.16023,0.28196 -0.19283,0.49692 l -0.0198,0.13121 z"
           opacity="0.90921"
           id="path26" />
        <path
           d="m 148.58,69.338 c -0.0208,-0.20447 -0.0959,-0.4082 -0.20006,-0.5438 -0.13336,-0.1735 -0.36114,-0.2896 -0.63698,-0.32468 l -0.12307,-0.01581 0.1115,-0.01547 c 0.15152,-0.02086 0.26028,-0.05238 0.37866,-0.10945 0.0798,-0.03841 0.12001,-0.06828 0.20275,-0.15031 0.0877,-0.08695 0.11126,-0.11911 0.15721,-0.21476 0.25875,-0.64617 -0.0162,-0.53463 0.24735,0.01143 0.0392,0.07918 0.0708,0.12176 0.1451,0.19592 0.0523,0.05214 0.12563,0.11264 0.16303,0.13458 0.0983,0.05758 0.24823,0.10574 0.40103,0.12868 l 0.13336,0.02018 -0.11671,0.01446 c -0.27888,0.03498 -0.50967,0.15332 -0.64159,0.32878 -0.10514,0.13979 -0.16023,0.28196 -0.19283,0.49692 l -0.0198,0.13121 z"
           opacity="0.90921"
           id="path27" />
        <path
           d="M 57.853,72.33 C 57.8322,72.12553 57.7571,71.9218 57.65294,71.7862 57.51958,71.6127 57.2918,71.4966 57.01596,71.46152 l -0.12307,-0.01581 0.1115,-0.01547 c 0.15152,-0.02086 0.26028,-0.05238 0.37866,-0.10945 0.0798,-0.03841 0.12001,-0.06828 0.20275,-0.15031 0.0877,-0.08695 0.11126,-0.11911 0.15721,-0.21476 0.25875,-0.64617 -0.0162,-0.53463 0.24735,0.01143 0.0392,0.07918 0.0708,0.12176 0.1451,0.19592 0.0523,0.05214 0.12563,0.11264 0.16303,0.13458 0.0983,0.05758 0.24823,0.10574 0.40103,0.12868 l 0.13336,0.02018 -0.11671,0.01446 c -0.27888,0.03498 -0.50967,0.15332 -0.64159,0.32878 -0.10514,0.13979 -0.16023,0.28196 -0.19283,0.49692 l -0.0198,0.13121 z"
           opacity="0.90921"
           id="path28" />
        <path
           d="M 30.366,78.403 C 30.3452,78.19853 30.2701,77.9948 30.16594,77.8592 30.03258,77.6857 29.8048,77.5696 29.52896,77.53452 l -0.12307,-0.01581 0.1115,-0.01547 c 0.15152,-0.02086 0.26028,-0.05238 0.37866,-0.10945 0.0798,-0.03841 0.12001,-0.06828 0.20275,-0.15031 0.0877,-0.08695 0.11126,-0.11911 0.15721,-0.21476 0.25875,-0.64617 -0.0162,-0.53463 0.24735,0.01143 0.0392,0.07918 0.0708,0.12176 0.1451,0.19592 0.0523,0.05214 0.12563,0.11264 0.16303,0.13458 0.0983,0.05758 0.24823,0.10574 0.40103,0.12868 l 0.13336,0.02018 -0.11671,0.01446 c -0.27888,0.03498 -0.50967,0.15332 -0.64159,0.32878 -0.10514,0.13979 -0.16023,0.28196 -0.19283,0.49692 l -0.0198,0.13121 z"
           opacity="0.90921"
           id="path29" />
        <path
           d="M 48.44,62.55 C 48.4192,62.34553 48.3441,62.1418 48.23994,62.0062 48.10658,61.8327 47.8788,61.7166 47.60296,61.68152 l -0.12307,-0.01581 0.1115,-0.01547 c 0.15152,-0.02086 0.26028,-0.05238 0.37866,-0.10945 0.0798,-0.03841 0.12001,-0.06828 0.20275,-0.15031 0.0877,-0.08695 0.11126,-0.11911 0.15721,-0.21476 0.25875,-0.64617 -0.0162,-0.53463 0.24735,0.01143 0.0392,0.07918 0.0708,0.12176 0.1451,0.19592 0.0523,0.05214 0.12563,0.11264 0.16303,0.13458 0.0983,0.05758 0.24823,0.10574 0.40103,0.12868 l 0.13336,0.02018 -0.11671,0.01446 c -0.27888,0.03498 -0.50967,0.15332 -0.64159,0.32878 -0.10514,0.13979 -0.16023,0.28196 -0.19283,0.49692 l -0.0198,0.13121 z"
           opacity="0.90921"
           id="path30" />
        <path
           d="m 174.49,72.36 c -0.0208,-0.20447 -0.0959,-0.4082 -0.20006,-0.5438 -0.13336,-0.1735 -0.36114,-0.2896 -0.63698,-0.32468 l -0.12307,-0.01581 0.1115,-0.01547 c 0.15152,-0.02086 0.26028,-0.05238 0.37866,-0.10945 0.0798,-0.03841 0.12001,-0.06828 0.20275,-0.15031 0.0877,-0.08695 0.11126,-0.11911 0.15721,-0.21476 0.25875,-0.64617 -0.0162,-0.53463 0.24735,0.01143 0.0392,0.07918 0.0708,0.12176 0.1451,0.19592 0.0523,0.05214 0.12563,0.11264 0.16303,0.13458 0.0983,0.05758 0.24823,0.10574 0.40103,0.12868 l 0.13336,0.02018 -0.11671,0.01446 c -0.27888,0.03498 -0.50967,0.15332 -0.64159,0.32878 -0.10514,0.13979 -0.16023,0.28196 -0.19283,0.49692 l -0.0198,0.13121 z"
           opacity="0.90921"
           id="path31" />
      </g>
    </g>
  </g>
  <g
     transform="translate(-27.476634,-42.158998)"
     id="g58">
    <g
       transform="matrix(0.92895,-0.020679,0.012925,0.72824,55.479,5.1355)"
       fill="#007705"
       id="g56">
      <path
         d="m 9.0677,127.45 c -2.6365,-6.3204 22.213156,-15.17742 28.941156,-16.55242 3.034078,-0.19651 13.556117,-1.55381 19.268195,-0.0704 13.261173,3.44382 30.073617,10.46701 33.416649,16.66885 0.299591,0.55579 0.16868,0.31312 0.38521,0.78324 0.28639,0.6218 0.38004,1.2773 -0.0052,1.5815 -14.96,12.445 -66.933,11.824 -82.006,-2.4102 z"
         id="path54"
         sodipodi:nodetypes="ccsssccc" />
      <path
         d="m 27.454353,113.81083 c -1.818448,-5.97447 -1.935113,-2.90619 -1.585798,-0.5058 -1.833687,-4.31257 0.723987,4.3958 -1.837084,-0.91102 1.742816,5.93856 -3.013924,-5.30888 -0.82505,1.345 -2.478401,-4.49942 -2.757688,-5.12763 -0.915703,0.10094 -1.061,-1.41503 -2.536151,-4.04882 -0.977359,1.22721 -1.54268,-1.08784 -1.128335,-2.40658 -1.199116,0.1 -2.127169,-1.18875 1.212243,2.9654 -2.017007,-0.60278 0.168349,1.84861 -0.938269,0.23367 0.571532,4.1022 -1.948046,-3.00883 -2.708431,-6.47117 -1.70916,-0.97584 -3.228667,-5.54886 0.172619,3.54338 -2.866152,-2.4733 -0.143987,0.78523 0.306707,3.74162 0.465592,5.41055"
         stroke-opacity="0"
         id="path55"
         style="stroke-width:2.42647" />
      <path
         d="m 72.154309,115.14726 c 1.932896,-6.02842 2.009283,-2.90283 1.620683,-0.47008 1.925463,-4.33695 -0.797401,4.45278 1.881973,-0.87536 -1.855498,5.99408 3.14016,-5.31741 0.82101,1.39189 2.584243,-4.50884 2.877143,-5.14033 0.930441,0.12867 1.099192,-1.41002 2.636846,-4.04875 0.977636,1.27634 1.584849,-1.06356 1.181407,-2.41715 1.218847,0.13558 2.181047,-1.14967 -1.274513,2.98359 2.060824,-0.55653 -0.196831,1.87636 0.951557,0.26413 -0.638207,4.15815 2.023904,-3.00705 2.845532,-6.50877 1.752711,-0.94482 3.361936,-5.55548 -0.224565,3.601 2.950739,-2.43606 0.135608,0.80318 -0.363755,3.79882 -0.54846,5.4925"
         stroke-opacity="0"
         id="path56"
         style="stroke-width:2.46965" />
    </g>
  </g>
  <g
     id="g20"
     transform="matrix(-0.92894999,-0.020679,-0.012925,0.72823999,122.35437,-30.475948)">
    <path
       inkscape:connector-curvature="0"
       style="opacity:0.2;fill:#1a1a1a;fill-opacity:1;stroke-width:0.131843"
       d="m 59.351012,109.91675 c -0.03763,2.70464 -6.33862,4.72521 -14.073543,4.50557 -7.734922,-0.21964 -13.974757,-2.59632 -13.937125,-5.30096 0.03763,-2.70469 6.338643,-4.72495 14.073565,-4.50531 7.734803,0.21964 13.974736,2.59601 13.937103,5.3007 z"
       id="path4"
       inkscape:export-xdpi="78.422279"
       inkscape:export-ydpi="78.422279" />
    <path
       style="fill:#ed9b9b;fill-opacity:1;stroke:#1a1a1a;stroke-width:0.32162"
       d="m 65.621159,84.028967 c 0.405168,0.812748 0.525329,1.420813 0.45098,2.324826 0.426155,0.894898 0.835828,1.023772 1.211597,-0.235331 l -0.666108,-2.061199"
       id="path3"
       sodipodi:nodetypes="cccc" />
    <path
       style="fill:#bca843;fill-opacity:1;stroke:#231f20;stroke-width:4;stroke-linecap:round;stroke-linejoin:round;stroke-miterlimit:10"
       inkscape:connector-curvature="0"
       stroke-miterlimit="10"
       d="m -2851.9677,-2745.431 v -42.16 c 0,-2.578 2.096,-4.675 4.674,-4.675 2.576,0 4.672,2.097 4.672,4.675 v 41.431 c 55.233,0.631 53.779,12.346 53.779,12.346 h -71.706 c -0.715,-7.505 4.48,-10.457 8.581,-11.617 z"
       id="path13004"
       transform="matrix(0.13744579,0.00390289,-0.00243943,0.17532718,429.80545,598.25871)" />
    <path
       style="fill:#ffd500;fill-opacity:1;stroke:#231f20;stroke-width:4;stroke-linecap:round;stroke-linejoin:round;stroke-miterlimit:10"
       inkscape:connector-curvature="0"
       stroke-miterlimit="10"
       d="m -2873.7877,-2737.424 v -42.16 c 0,-2.579 2.096,-4.674 4.675,-4.674 2.583,0 4.679,2.095 4.679,4.674 v 41.426 c 55.227,0.636 53.772,12.352 53.772,12.352 h -71.705 c -0.718,-7.507 4.482,-10.457 8.579,-11.618 z"
       id="path13006"
       transform="matrix(0.13744579,0.00390289,-0.00243943,0.17532718,429.80545,598.25871)" />
    <path
       style="fill:#f2f2f2;stroke:#231f20;stroke-width:4;stroke-linecap:round;stroke-linejoin:round;stroke-miterlimit:10"
       inkscape:connector-curvature="0"
       stroke-miterlimit="10"
       d="m -2946.9007,-2804.193 c -0.069,-0.612 99.626,-97.947 133.433,-97.947 33.802,0 61.219,27.413 61.219,61.221 0,33.816 -27.417,61.23 -61.219,61.23 -28.163,0 -102.046,5.157 -125.971,-12.646 -37.363,66.929 -71.234,23.368 -71.234,23.368 z"
       id="path13008"
       transform="matrix(0.13744579,0.00390289,-0.00243943,0.17532718,429.80545,598.25871)" />
    <path
       style="fill:#ffffff;stroke:#231f20;stroke-width:4;stroke-linecap:round;stroke-linejoin:round;stroke-miterlimit:10"
       inkscape:connector-curvature="0"
       stroke-miterlimit="10"
       d="m -2764.8137,-2862.416 c 24.788,-8.118 40.457,-33.453 35.755,-59.871 -5.164,-28.92 -32.781,-48.184 -61.703,-43.031 -28.925,5.157 -48.182,32.775 -43.032,61.701 0.872,4.893 2.388,9.508 4.447,13.771"
       id="path13010"
       transform="matrix(0.13744579,0.00390289,-0.00243943,0.17532718,429.80545,598.25871)" />
    <path
       style="fill:#ffd500;fill-opacity:1;stroke:#231f20;stroke-width:4;stroke-linecap:round;stroke-linejoin:round;stroke-miterlimit:10"
       inkscape:connector-curvature="0"
       stroke-miterlimit="10"
       d="m -2747.1057,-2875.033 c -28.349,2.932 -28.914,-24.668 -4.88,-27.371 0,0 10.768,-11.717 22.927,-19.883 15.36,18.48 43.516,19.977 46.341,49.161 z"
       id="path13012"
       transform="matrix(0.13744579,0.00390289,-0.00243943,0.17532718,429.80545,598.25871)" />
    <path
       style="fill:#d7e3f4;stroke:#231f20;stroke-width:4;stroke-linecap:round;stroke-linejoin:round;stroke-miterlimit:10"
       inkscape:connector-curvature="0"
       stroke-miterlimit="10"
       d="m -2776.8617,-2846.019 c 0,0 9.356,48.997 -31.167,52.895 0,0 -110.677,6.229 -109.108,-14.807 l 41.761,-17.929"
       id="path13014"
       transform="matrix(0.13744579,0.00390289,-0.00243943,0.17532718,429.80545,598.25871)" />
    <circle
       style="fill:#231f20"
       cx="-2785.2866"
       cy="-2924.76"
       r="8.4729996"
       id="circle13016"
       transform="matrix(0.13744579,0.00390289,-0.00243943,0.17532718,429.80545,598.25871)" />
    <path
       style="opacity:1;fill:#d7e3f4;fill-opacity:1;stroke-width:2.07142"
       d="m -2873.5624,-2824.8633 45.1674,-20.5046 c 23.5539,-9.4499 33.2767,-6.9727 49.4053,0.091 l -1.6129,16.0906 z"
       id="path1"
       sodipodi:nodetypes="ccccc"
       transform="matrix(0.13744579,0.00390289,-0.00243943,0.17532718,429.80545,598.25871)" />
    <path
       style="fill:#ffffff;fill-opacity:1;stroke:#ffffff;stroke-width:2.07142;stroke-opacity:1"
       d="m -2827.1899,-2892.6268 c 9.7989,31.3727 38.3193,23.7421 61.0751,28.121 l -14.0605,-11.8636 z"
       id="path20-5"
       sodipodi:nodetypes="cccc"
       transform="matrix(0.13744579,0.00390289,-0.00243943,0.17532718,429.80545,598.25871)" />
    <path
       inkscape:connector-curvature="0"
       style="fill:none;stroke:#231f20;stroke-width:0.465798;stroke-linecap:round;stroke-linejoin:round;stroke-miterlimit:10"
       stroke-miterlimit="10"
       d="m 68.085823,84.051362 c 0,0 -9.919613,-1.398457 -10.18706,-3.254866"
       id="path14352"
       inkscape:export-xdpi="78.422279"
       inkscape:export-ydpi="78.422279" />
    <path
       style="fill:#e9afaf;fill-opacity:1;stroke:#1a1a1a;stroke-width:0.321621"
       d="m 63.000682,82.795637 c -0.842322,0.978645 -1.443179,2.248398 -1.109127,3.725531 1.057068,2.066789 -0.331914,2.340466 -0.75516,3.253914 -0.148368,1.101486 0.353875,1.348301 1.054548,1.282292 1.096813,-1.457308 1.621928,-2.591511 0.856909,-5.139176 -0.09671,-1.338411 0.8236,-1.728378 1.457268,-2.694513 -0.539237,-0.958008 -1.026419,-0.791952 -1.504438,-0.428048 z"
       id="path2"
       sodipodi:nodetypes="ccccccc" />
    <path
       style="fill:none;fill-opacity:1;stroke:#1a1a1a;stroke-width:0.32162"
       d="m 61.60125,89.617798 c 0.02013,5.72e-4 0.06003,0.02739 0.06039,0.0017 3.57e-4,-0.02568 -0.08001,0.004 -0.06039,-0.0017 0.01001,-0.003 0.165281,-0.03557 0.181445,-0.0141 0.0078,0.0104 0.0053,0.03071 0.01455,0.03895 0.02164,0.01925 0.08053,-0.0085 0.105686,0.003 0.0067,0.0031 0.0081,0.01662 0.01482,0.01968 0.04614,0.02104 0.07461,0.02087 0.11998,0.06121 0.03052,0.02714 0.05669,0.07698 0.08925,0.09887 0.0045,0.003 0.01159,-0.0042 0.01509,4.28e-4 0.0067,0.0089 0.05604,0.133236 0.05852,0.136529 0.0091,0.01207 0.03001,0.01404 0.02939,0.05863"
       id="path5" />
    <path
       style="fill:none;fill-opacity:1;stroke:#1a1a1a;stroke-width:0.32162"
       d="m 62.337478,88.810231 c 0.01995,0.01343 0.04944,0.06563 0.05986,0.04023 0.01044,-0.02539 -0.07981,-0.05364 -0.05986,-0.04023 0.03991,0.02682 0.07981,0.05364 0.119715,0.08047 0.0099,0.01314 0.01797,0.02896 0.02966,0.03938 0.02315,0.0206 0.01028,-0.03244 0.02993,0.02011 0.0022,0.0058 -0.0038,0.01461 -2.68e-4,0.01925 0.0035,0.0046 0.01159,-0.0042 0.01509,4.28e-4 0.0086,0.01143 0.03565,0.102604 0.04369,0.116842 0.02479,0.04392 0.04453,0.05624 0.04369,0.116841"
       id="path6" />
    <path
       style="fill:none;fill-opacity:1;stroke:#1a1a1a;stroke-width:0.32162"
       d="m 62.972478,83.337218 c 0.02013,5.71e-4 0.06003,0.02739 0.06039,0.0017 3.57e-4,-0.02568 -0.08052,-0.0023 -0.06039,-0.0017 0.04026,0.0011 0.08085,-0.0034 0.120784,0.0034 0.0208,0.0035 0.0228,0.04988 0.02939,0.05864 0.01029,0.01366 0.04609,0.0035 0.05986,0.04023 0.01005,0.02684 -0.01852,0.0167 0.01455,0.03895 0.0089,0.006 0.02126,-0.0051 0.0302,8.57e-4 0.01261,0.0085 0.01623,0.03323 0.02966,0.03938 0.0095,0.0043 0.0207,-0.0035 0.0302,8.57e-4 0.04685,0.02139 -0.0052,0.01271 0.01455,0.03895 0.0035,0.0046 0.01237,-0.005 0.01509,4.29e-4 0.01873,0.03738 0.01404,0.07564 0.01348,0.115983"
       id="path7" />
    <path
       style="fill:none;fill-opacity:1;stroke:#1a1a1a;stroke-width:0.32162"
       d="m 62.600479,84.020259 c 0.02022,-0.0059 0.06533,0.0083 0.06066,-0.01753 -0.0047,-0.02582 -0.08088,0.02339 -0.06066,0.01753 0.03073,-0.0089 0.176275,-0.06618 0.227006,-0.03209 0.02294,0.0154 0.11617,0.143863 0.11864,0.157503 5.34e-4,0.0026 -0.0055,0.07116 -0.0011,0.07704 0.01977,0.02625 0.01554,-0.03168 0.01482,0.01968"
       id="path8" />
    <path
       style="fill:#f2f2f2;fill-opacity:1;stroke:#1a1a1a;stroke-width:0.32162"
       d="m 62.196404,84.837261 c 0.02333,-0.01049 0.241224,-0.06436 0.272569,-0.05006 0.0067,0.0031 0.0085,0.01546 0.01482,0.01968 0.0045,0.003 0.01292,-0.0054 0.01509,4.29e-4 0.0043,0.0116 -0.0075,0.02925 -5.36e-4,0.03852 0.007,0.0093 0.02126,-0.0051 0.0302,8.58e-4 0.0193,0.01297 -0.02468,0.03783 0.01455,0.03895"
       id="path19-3" />
  </g>
</svg>
