<?xml version="1.0" encoding="UTF-8" standalone="no"?>
<!-- Created with Inkscape (http://www.inkscape.org/) -->

<svg
   width="168.70805mm"
   height="62.91975mm"
   version="1.1"
   viewBox="0 0 168.70805 62.919754"
   id="svg131"
   sodipodi:docname="bug-report-day.svg"
   inkscape:version="1.4 (1:1.4+202410161351+e7c3feb100)"
   xmlns:inkscape="http://www.inkscape.org/namespaces/inkscape"
   xmlns:sodipodi="http://sodipodi.sourceforge.net/DTD/sodipodi-0.dtd"
   xmlns="http://www.w3.org/2000/svg"
   xmlns:svg="http://www.w3.org/2000/svg">
  <sodipodi:namedview
     id="namedview131"
     pagecolor="#ffffff"
     bordercolor="#000000"
     borderopacity="0.25"
     inkscape:showpageshadow="2"
     inkscape:pageopacity="0.0"
     inkscape:pagecheckerboard="0"
     inkscape:deskcolor="#d1d1d1"
     inkscape:document-units="mm"
     inkscape:zoom="1.6667592"
     inkscape:cx="355.18029"
     inkscape:cy="147.29183"
     inkscape:window-width="1803"
     inkscape:window-height="1125"
     inkscape:window-x="0"
     inkscape:window-y="0"
     inkscape:window-maximized="1"
     inkscape:current-layer="g18" />
  <defs
     id="defs8">
    <linearGradient
       id="linearGradient50606"
       x1="421.45999"
       x2="458.98999"
       y1="81.216003"
       y2="80.958"
       gradientTransform="matrix(0.36219,-0.0075634,0.0085593,0.45242,-122.38,55.957)"
       gradientUnits="userSpaceOnUse">
      <stop
         stop-color="#d1a448"
         offset="0"
         id="stop1" />
      <stop
         stop-color="#9b7527"
         stop-opacity=".9918"
         offset="1"
         id="stop2" />
    </linearGradient>
    <linearGradient
       id="linearGradient33560"
       x1="439.64001"
       x2="412.56"
       y1="53.484001"
       y2="53.870998"
       gradientTransform="matrix(0.36219,-0.0075634,0.0085593,0.45242,-123.44,56.069)"
       gradientUnits="userSpaceOnUse">
      <stop
         stop-color="#96312a"
         offset="0"
         id="stop3" />
      <stop
         stop-color="#65211c"
         stop-opacity=".9959"
         offset="1"
         id="stop4" />
    </linearGradient>
    <linearGradient
       id="linearGradient33562"
       x1="419.64999"
       x2="452.28"
       y1="64.963997"
       y2="65.350998"
       gradientTransform="matrix(0.36219,-0.0071478,0.0085593,0.42756,-122.85,57.356)"
       gradientUnits="userSpaceOnUse">
      <stop
         stop-color="#c33f37"
         offset="0"
         id="stop5" />
      <stop
         stop-color="#b33a33"
         stop-opacity=".98039"
         offset="1"
         id="stop6" />
    </linearGradient>
    <linearGradient
       id="linearGradient15121"
       x1="367.10999"
       x2="367.22"
       y1="87.487"
       y2="90.810997"
       gradientUnits="userSpaceOnUse">
      <stop
         stop-color="#916f6f"
         offset="0"
         id="stop7" />
      <stop
         stop-color="#685050"
         stop-opacity=".9918"
         offset="1"
         id="stop8" />
    </linearGradient>
    <clipPath
       id="clipPath14">
      <ellipse
         transform="matrix(0.9996,0.028384,-0.013912,0.9999,0,0)"
         cx="106.13"
         cy="91.443001"
         rx="117.86"
         ry="38.66"
         fill="#00ffff"
         stroke-width="0.32164"
         id="ellipse8" />
    </clipPath>
  </defs>
  <g
     transform="matrix(0.93555178,0,0,1,-12.419451,-42.158998)"
     style="mix-blend-mode:difference"
     id="g19">
    <ellipse
       cx="103.44"
       cy="70.320999"
       rx="90.165001"
       ry="28.162001"
       fill="#0ff"
       stroke-width="0.2401"
       id="ellipse9"
       style="fill:#00ffff;fill-opacity:1" />
    <g
       transform="matrix(0.090962,0,0,0.090962,-30.683,344.62)"
       fill="#ffffff"
       id="g18">
      <path
         d="m 856.41826,-3104.504 c -2.12673,6e-4 -4.15131,0.4425 -6.02399,1.2083 -2.80175,-12.2356 -13.13972,-21.323 -25.47335,-21.323 -12.33725,-1e-4 -22.67619,9.0873 -25.47455,21.3218 -1.87159,-0.7663 -3.90101,-1.2076 -6.02557,-1.2076 -9.27769,0 -16.79745,8.0285 -16.79745,17.9255 0,9.9 7.52025,17.9255 16.79745,17.9243 2.91117,1e-4 17.46558,1e-4 31.50097,1e-4 14.03298,2e-4 28.5852,2e-4 31.49734,-1e-4 9.27684,1e-4 16.79745,-8.0248 16.79745,-17.9255 -8e-5,-9.8964 -7.52073,-17.9255 -16.79745,-17.9255 z"
         stroke-width="0.290572"
         id="path15" />
      <path
         d="m 1900.739,-2963.8312 c -1.6112,0 -3.1449,0.3138 -4.5632,0.858 -2.1224,-8.6877 -9.9529,-15.1407 -19.2967,-15.1407 -9.346,2e-4 -17.1777,6.4528 -19.2975,15.1407 -1.4174,-0.544 -2.9552,-0.8577 -4.5643,-0.8577 -7.0282,-2e-4 -12.7249,5.701 -12.7249,12.7287 -10e-5,7.0293 5.6965,12.7279 12.7249,12.7279 2.205,2e-4 13.23,0 23.8622,10e-5 10.6299,-10e-5 21.6537,-10e-5 23.8597,-10e-5 7.0273,0 12.7241,-5.6981 12.7241,-12.7279 0,-7.0272 -5.6971,-12.728 -12.7241,-12.7287 z"
         stroke-width="0.213107"
         id="path16" />
      <path
         d="m 2106.6641,-3096.2981 c -1.9475,-7e-4 -3.8013,0.3796 -5.5161,1.0371 -2.5652,-10.5014 -12.0303,-18.3016 -23.3234,-18.3016 -11.297,1e-4 -20.7634,7.8 -23.3257,18.3016 -1.7134,-0.6574 -3.5721,-1.0366 -5.5172,-1.0369 -8.495,3e-4 -15.3812,6.8915 -15.3812,15.3859 -2e-4,8.4973 6.8859,15.3847 15.3812,15.3847 2.665,0 15.992,-4e-4 28.8436,0 h 28.8401 c 8.494,0 15.3812,-6.8878 15.3812,-15.3847 0,-8.4939 -6.8867,-15.3847 -15.3801,-15.3859 z"
         stroke-width="0.257594"
         id="path17" />
      <path
         d="m 1145.645,-3179.6611 c -1.412,-5e-4 -2.7561,0.2752 -3.9993,0.752 -1.8599,-7.6138 -8.7226,-13.269 -16.91,-13.269 -8.1906,1e-4 -15.054,5.6552 -16.912,13.269 -1.2422,-0.4767 -2.5899,-0.7516 -4.0001,-0.7518 -6.159,2e-4 -11.152,4.9965 -11.152,11.155 -2e-4,6.1607 4.9924,11.154 11.152,11.154 1.9322,0 11.595,-3e-4 20.912,0 h 20.91 c 6.1584,0 11.151,-4.9939 11.151,-11.154 0,-6.1584 -4.993,-11.155 -11.151,-11.155 z"
         stroke-width="0.18676"
         id="path18" />
    </g>
    <g
       transform="matrix(0.92895,-0.020679,0.012925,0.72824,6.7956,3.7091)"
       clip-path="url(#clipPath14)"
       fill="#32c63d"
       opacity="0.86056"
       id="g14">
      <path
         d="m 80.205,119.5 c 0.78266,-2.441 0.81359,-1.1754 0.65624,-0.19034 0.77965,-1.7561 -0.32288,1.803 0.76204,-0.35445 -0.75132,2.4271 1.2715,-2.1531 0.33244,0.5636 1.0464,-1.8257 1.165,-2.0814 0.37675,0.0521 0.44508,-0.57094 1.0677,-1.6394 0.39586,0.51681 0.64173,-0.43065 0.47837,-0.97874 0.49353,0.0549 0.88314,-0.46552 -0.51607,1.2081 0.83446,-0.22535 -0.0797,0.75977 0.3853,0.10695 -0.25842,1.6837 0.81951,-1.2176 1.1522,-2.6355 0.7097,-0.38257 1.3613,-2.2495 -0.09093,1.4581 1.1948,-0.9864 0.05491,0.32522 -0.14729,1.5382 -0.22208,2.224"
         fill="#32c63d"
         stroke-opacity="0"
         id="path9" />
      <path
         d="m 15.274,121.06 c -0.05467,-5.4217 -0.58405,-11.475 6.9305,-6.8322 2.1259,-2.8852 0.42816,-6.2696 7.0794,-8.564 l 0.56058,1.7068 c 6.613,-1.8719 5.6384,-0.5814 6.6693,1.4147 1.5957,-3.9695 5.771613,-6.2447 9.001713,-6.9552 8.2767,-0.86306 6.686857,2.05202 9.136657,4.85152 2.3327,-2.4244 3.91173,-3.07132 9.50313,0.99378 1.9929,-3.972 4.0214,-7.7994 8.785,-0.51663 3.1456,-5.3403 5.7476,-6.0531 7.8647,-2.6387 8.658432,7.51586 3.330931,9.85925 4.831629,17.22795 z"
         fill="#26972e"
         stroke-width="0.32162"
         id="path10"
         sodipodi:nodetypes="cccccccccccc" />
      <path
         d="m 9.0677,127.45 c -2.6365,-6.3204 27.569,-15.03 37.542,-15.489 16.721,-0.76192 39.3,6.6615 44.083,15.534 0.2996,0.55578 0.16868,0.31312 0.38521,0.78324 0.28639,0.6218 0.38004,1.2773 -0.0052,1.5815 -14.96,12.445 -66.933,11.824 -82.006,-2.4102 z"
         fill="#32c63d"
         id="path11" />
      <path
         d="m 28.658,116.04 c -0.50948,-2.5589 -0.67781,-1.3119 -0.62917,-0.30821 -0.58102,-1.8804 0.12358,1.8434 -0.71609,-0.48995 0.47994,2.5394 -1.0249,-2.3632 -0.39054,0.49711 -0.83757,-1.9981 -0.92721,-2.2728 -0.37876,-0.0173 -0.37864,-0.64637 -0.87894,-1.8175 -0.44824,0.43922 -0.58864,-0.54341 -0.36724,-1.0561 -0.49471,-0.0358 -0.8239,-0.62205 0.37962,1.2899 -0.80184,-0.37544 -0.0037,0.76654 -0.39321,0.0355 0.07271,1.7136 -0.67907,-1.3547 -0.85424,-2.8188 -0.66119,-0.50827 -1.1034,-2.475 -0.0686,1.4597 -1.0759,-1.1944 -0.08979,0.31182 -0.02151,1.5493 -0.02206,2.2417"
         fill="#32c63d"
         stroke-opacity="0"
         id="path12" />
      <path
         d="m 185.13,131.15 c 0.63699,-5.3569 -0.34021,-14.314 -8.2782,-11.119 -1.7943,-3.2523 -5.2048,-7.56085 -5.2048,-7.56085 -6.3452,-3.0854 -6.03832,-2.51295 -7.27342,-0.72906 -1.1529,-4.2269 -3.32558,0.7679 -6.44668,-0.5373 -4.6285,-5.1958 -7.8744,-0.0478 -10.6,2.267 -2.0485,-2.8347 0.12337,-8.5676 -5.8487,-5.5854 -1.0198,-2.8389 -2.02866,-5.72364 -5.17506,-5.20354 -1.6232,0.26829 -4.89264,1.80914 -6.76384,3.96054 -2.5399,-5.8727 -4.71022,-4.43821 -7.17312,-1.45271 -1.80381,1.35734 -2.39158,5.66542 -3.82054,6.1658 -7.51199,2.63051 -5.52121,4.78659 -7.04705,10.20272 z"
         fill="#26972e"
         stroke-width="0.32162"
         id="path13"
         sodipodi:nodetypes="cccccccsccscc" />
      <path
         d="m 185.95,134.06 c 2.8102,-6.1657 -27.129,-16.584 -37.082,-17.608 -16.687,-1.7106 -39.454,4.4252 -44.481,13.02 -0.31483,0.53833 -0.17725,0.3033 -0.40669,0.76075 -0.30346,0.60506 -0.41527,1.2547 -0.039,1.5805 14.602,13.284 66.552,15.615 82.008,2.247 z"
         fill="#32c63d"
         id="path14" />
    </g>
  </g>
  <g
     transform="translate(-20.915568,-42.158998)"
     id="g44">
    <g
       transform="matrix(0.92895,-0.020679,0.012925,0.72824,55.479,5.1355)"
       fill="#2db337"
       id="g42">
      <path
         d="m 9.0677,127.45 c -2.6365,-6.3204 27.401676,-16.3487 34.129676,-17.7237 3.211673,-0.20801 7.777002,-0.8166 13.938936,0.69551 13.173773,3.23277 30.298642,11.02872 33.557388,17.07419 0.299591,0.55579 0.16868,0.31312 0.38521,0.78324 0.28639,0.6218 0.38004,1.2773 -0.0052,1.5815 -14.96,12.445 -66.933,11.824 -82.006,-2.4102 z"
         id="path40"
         sodipodi:nodetypes="ccsssccc" />
      <path
         d="m 69.029016,116.29923 c 2.394173,-8.56279 2.656196,-4.21055 2.235613,-0.78675 2.467991,-6.20355 -0.889864,6.27369 2.579644,-1.37308 -2.287998,8.50865 4.112316,-7.6691 1.213646,1.87441 3.377683,-6.49659 3.754518,-7.40088 1.303308,0.10406 1.461949,-2.05521 3.473904,-5.85928 1.42621,1.70059 2.156129,-1.61142 1.526422,-3.46623 1.70565,0.0904 2.982861,-1.77981 -1.628009,4.26364 2.844806,-0.94298 -0.180974,2.63241 1.339483,0.29125 -0.682633,5.84996 2.671388,-4.35705 3.642353,-9.30651 2.396015,-1.45944 4.409592,-8.01905 -0.133801,5.03954 3.991684,-3.63592 0.228992,1.109 -0.317967,5.32666 -0.491131,7.70335"
         stroke-opacity="0"
         id="path42"
         style="stroke-width:3.44663" />
      <g
         id="g20"
         transform="matrix(-0.99921014,-0.05676929,-0.02781613,0.99921014,98.129656,11.355619)">
        <path
           inkscape:connector-curvature="0"
           style="opacity:0.2;fill:#1a1a1a;fill-opacity:1;stroke-width:0.131843"
           d="m 59.351012,109.91675 c -0.03763,2.70464 -6.33862,4.72521 -14.073543,4.50557 -7.734922,-0.21964 -13.974757,-2.59632 -13.937125,-5.30096 0.03763,-2.70469 6.338643,-4.72495 14.073565,-4.50531 7.734803,0.21964 13.974736,2.59601 13.937103,5.3007 z"
           id="path4"
           inkscape:export-xdpi="78.422279"
           inkscape:export-ydpi="78.422279" />
        <path
           style="fill:#ed9b9b;fill-opacity:1;stroke:#1a1a1a;stroke-width:0.32162"
           d="m 65.621159,84.028967 c 0.405168,0.812748 0.525329,1.420813 0.45098,2.324826 0.426155,0.894898 0.835828,1.023772 1.211597,-0.235331 l -0.666108,-2.061199"
           id="path3"
           sodipodi:nodetypes="cccc" />
        <path
           style="fill:#bca843;fill-opacity:1;stroke:#231f20;stroke-width:4;stroke-linecap:round;stroke-linejoin:round;stroke-miterlimit:10"
           inkscape:connector-curvature="0"
           stroke-miterlimit="10"
           d="m -2851.9677,-2745.431 v -42.16 c 0,-2.578 2.096,-4.675 4.674,-4.675 2.576,0 4.672,2.097 4.672,4.675 v 41.431 c 55.233,0.631 53.779,12.346 53.779,12.346 h -71.706 c -0.715,-7.505 4.48,-10.457 8.581,-11.617 z"
           id="path13004"
           transform="matrix(0.13744579,0.00390289,-0.00243943,0.17532718,429.80545,598.25871)" />
        <path
           style="fill:#ffd500;fill-opacity:1;stroke:#231f20;stroke-width:4;stroke-linecap:round;stroke-linejoin:round;stroke-miterlimit:10"
           inkscape:connector-curvature="0"
           stroke-miterlimit="10"
           d="m -2873.7877,-2737.424 v -42.16 c 0,-2.579 2.096,-4.674 4.675,-4.674 2.583,0 4.679,2.095 4.679,4.674 v 41.426 c 55.227,0.636 53.772,12.352 53.772,12.352 h -71.705 c -0.718,-7.507 4.482,-10.457 8.579,-11.618 z"
           id="path13006"
           transform="matrix(0.13744579,0.00390289,-0.00243943,0.17532718,429.80545,598.25871)" />
        <path
           style="fill:#f2f2f2;stroke:#231f20;stroke-width:4;stroke-linecap:round;stroke-linejoin:round;stroke-miterlimit:10"
           inkscape:connector-curvature="0"
           stroke-miterlimit="10"
           d="m -2946.9007,-2804.193 c -0.069,-0.612 99.626,-97.947 133.433,-97.947 33.802,0 61.219,27.413 61.219,61.221 0,33.816 -27.417,61.23 -61.219,61.23 -28.163,0 -102.046,5.157 -125.971,-12.646 -37.363,66.929 -71.234,23.368 -71.234,23.368 z"
           id="path13008"
           transform="matrix(0.13744579,0.00390289,-0.00243943,0.17532718,429.80545,598.25871)" />
        <path
           style="fill:#ffffff;stroke:#231f20;stroke-width:4;stroke-linecap:round;stroke-linejoin:round;stroke-miterlimit:10"
           inkscape:connector-curvature="0"
           stroke-miterlimit="10"
           d="m -2764.8137,-2862.416 c 24.788,-8.118 40.457,-33.453 35.755,-59.871 -5.164,-28.92 -32.781,-48.184 -61.703,-43.031 -28.925,5.157 -48.182,32.775 -43.032,61.701 0.872,4.893 2.388,9.508 4.447,13.771"
           id="path13010"
           transform="matrix(0.13744579,0.00390289,-0.00243943,0.17532718,429.80545,598.25871)" />
        <path
           style="fill:#ffd500;fill-opacity:1;stroke:#231f20;stroke-width:4;stroke-linecap:round;stroke-linejoin:round;stroke-miterlimit:10"
           inkscape:connector-curvature="0"
           stroke-miterlimit="10"
           d="m -2747.1057,-2875.033 c -28.349,2.932 -28.914,-24.668 -4.88,-27.371 0,0 10.768,-11.717 22.927,-19.883 15.36,18.48 43.516,19.977 46.341,49.161 z"
           id="path13012"
           transform="matrix(0.13744579,0.00390289,-0.00243943,0.17532718,429.80545,598.25871)" />
        <path
           style="fill:#d7e3f4;stroke:#231f20;stroke-width:4;stroke-linecap:round;stroke-linejoin:round;stroke-miterlimit:10"
           inkscape:connector-curvature="0"
           stroke-miterlimit="10"
           d="m -2776.8617,-2846.019 c 0,0 9.356,48.997 -31.167,52.895 0,0 -110.677,6.229 -109.108,-14.807 l 41.761,-17.929"
           id="path13014"
           transform="matrix(0.13744579,0.00390289,-0.00243943,0.17532718,429.80545,598.25871)" />
        <circle
           style="fill:#231f20"
           cx="-2785.2866"
           cy="-2924.76"
           r="8.4729996"
           id="circle13016"
           transform="matrix(0.13744579,0.00390289,-0.00243943,0.17532718,429.80545,598.25871)" />
        <path
           style="opacity:1;fill:#d7e3f4;fill-opacity:1;stroke-width:2.07142"
           d="m -2873.5624,-2824.8633 45.1674,-20.5046 c 23.5539,-9.4499 33.2767,-6.9727 49.4053,0.091 l -1.6129,16.0906 z"
           id="path1"
           sodipodi:nodetypes="ccccc"
           transform="matrix(0.13744579,0.00390289,-0.00243943,0.17532718,429.80545,598.25871)" />
        <path
           style="fill:#ffffff;fill-opacity:1;stroke:#ffffff;stroke-width:2.07142;stroke-opacity:1"
           d="m -2827.1899,-2892.6268 c 9.7989,31.3727 38.3193,23.7421 61.0751,28.121 l -14.0605,-11.8636 z"
           id="path20"
           sodipodi:nodetypes="cccc"
           transform="matrix(0.13744579,0.00390289,-0.00243943,0.17532718,429.80545,598.25871)" />
        <path
           inkscape:connector-curvature="0"
           style="fill:none;stroke:#231f20;stroke-width:0.465798;stroke-linecap:round;stroke-linejoin:round;stroke-miterlimit:10"
           stroke-miterlimit="10"
           d="m 68.085823,84.051362 c 0,0 -9.919613,-1.398457 -10.18706,-3.254866"
           id="path14352"
           inkscape:export-xdpi="78.422279"
           inkscape:export-ydpi="78.422279" />
        <path
           style="fill:#e9afaf;fill-opacity:1;stroke:#1a1a1a;stroke-width:0.321621"
           d="m 63.000682,82.795637 c -0.842322,0.978645 -1.443179,2.248398 -1.109127,3.725531 1.057068,2.066789 -0.331914,2.340466 -0.75516,3.253914 -0.148368,1.101486 0.353875,1.348301 1.054548,1.282292 1.096813,-1.457308 1.621928,-2.591511 0.856909,-5.139176 -0.09671,-1.338411 0.8236,-1.728378 1.457268,-2.694513 -0.539237,-0.958008 -1.026419,-0.791952 -1.504438,-0.428048 z"
           id="path2"
           sodipodi:nodetypes="ccccccc" />
        <path
           style="fill:none;fill-opacity:1;stroke:#1a1a1a;stroke-width:0.32162"
           d="m 61.60125,89.617798 c 0.02013,5.72e-4 0.06003,0.02739 0.06039,0.0017 3.57e-4,-0.02568 -0.08001,0.004 -0.06039,-0.0017 0.01001,-0.003 0.165281,-0.03557 0.181445,-0.0141 0.0078,0.0104 0.0053,0.03071 0.01455,0.03895 0.02164,0.01925 0.08053,-0.0085 0.105686,0.003 0.0067,0.0031 0.0081,0.01662 0.01482,0.01968 0.04614,0.02104 0.07461,0.02087 0.11998,0.06121 0.03052,0.02714 0.05669,0.07698 0.08925,0.09887 0.0045,0.003 0.01159,-0.0042 0.01509,4.28e-4 0.0067,0.0089 0.05604,0.133236 0.05852,0.136529 0.0091,0.01207 0.03001,0.01404 0.02939,0.05863"
           id="path5" />
        <path
           style="fill:none;fill-opacity:1;stroke:#1a1a1a;stroke-width:0.32162"
           d="m 62.337478,88.810231 c 0.01995,0.01343 0.04944,0.06563 0.05986,0.04023 0.01044,-0.02539 -0.07981,-0.05364 -0.05986,-0.04023 0.03991,0.02682 0.07981,0.05364 0.119715,0.08047 0.0099,0.01314 0.01797,0.02896 0.02966,0.03938 0.02315,0.0206 0.01028,-0.03244 0.02993,0.02011 0.0022,0.0058 -0.0038,0.01461 -2.68e-4,0.01925 0.0035,0.0046 0.01159,-0.0042 0.01509,4.28e-4 0.0086,0.01143 0.03565,0.102604 0.04369,0.116842 0.02479,0.04392 0.04453,0.05624 0.04369,0.116841"
           id="path6" />
        <path
           style="fill:none;fill-opacity:1;stroke:#1a1a1a;stroke-width:0.32162"
           d="m 62.972478,83.337218 c 0.02013,5.71e-4 0.06003,0.02739 0.06039,0.0017 3.57e-4,-0.02568 -0.08052,-0.0023 -0.06039,-0.0017 0.04026,0.0011 0.08085,-0.0034 0.120784,0.0034 0.0208,0.0035 0.0228,0.04988 0.02939,0.05864 0.01029,0.01366 0.04609,0.0035 0.05986,0.04023 0.01005,0.02684 -0.01852,0.0167 0.01455,0.03895 0.0089,0.006 0.02126,-0.0051 0.0302,8.57e-4 0.01261,0.0085 0.01623,0.03323 0.02966,0.03938 0.0095,0.0043 0.0207,-0.0035 0.0302,8.57e-4 0.04685,0.02139 -0.0052,0.01271 0.01455,0.03895 0.0035,0.0046 0.01237,-0.005 0.01509,4.29e-4 0.01873,0.03738 0.01404,0.07564 0.01348,0.115983"
           id="path7" />
        <path
           style="fill:none;fill-opacity:1;stroke:#1a1a1a;stroke-width:0.32162"
           d="m 62.600479,84.020259 c 0.02022,-0.0059 0.06533,0.0083 0.06066,-0.01753 -0.0047,-0.02582 -0.08088,0.02339 -0.06066,0.01753 0.03073,-0.0089 0.176275,-0.06618 0.227006,-0.03209 0.02294,0.0154 0.11617,0.143863 0.11864,0.157503 5.34e-4,0.0026 -0.0055,0.07116 -0.0011,0.07704 0.01977,0.02625 0.01554,-0.03168 0.01482,0.01968"
           id="path8" />
        <path
           style="fill:#f2f2f2;fill-opacity:1;stroke:#1a1a1a;stroke-width:0.32162"
           d="m 62.196404,84.837261 c 0.02333,-0.01049 0.241224,-0.06436 0.272569,-0.05006 0.0067,0.0031 0.0085,0.01546 0.01482,0.01968 0.0045,0.003 0.01292,-0.0054 0.01509,4.29e-4 0.0043,0.0116 -0.0075,0.02925 -5.36e-4,0.03852 0.007,0.0093 0.02126,-0.0051 0.0302,8.58e-4 0.0193,0.01297 -0.02468,0.03783 0.01455,0.03895"
           id="path19" />
      </g>
      <g
         id="g1"
         transform="translate(-1.0461977,0.35683298)">
        <g
           transform="matrix(0.13744579,0.00390289,-0.00243943,0.17532718,429.80544,598.25872)"
           id="g13018"
           inkscape:export-xdpi="78.422279"
           inkscape:export-ydpi="78.422279" />
      </g>
      <path
         d="m 27.651802,115.94516 c -2.352649,-7.72957 -2.503586,-3.75992 -2.051653,-0.65438 -2.372365,-5.57947 0.93667,5.68715 -2.376759,-1.17865 2.254797,7.6831 -3.899317,-6.86846 -1.067423,1.74011 -3.206474,-5.82119 -3.567807,-6.63396 -1.184706,0.1306 -1.372688,-1.83071 -3.28119,-5.23823 -1.264476,1.58773 -1.995869,-1.40742 -1.459803,-3.11355 -1.551376,0.12933 -2.752061,-1.53797 1.568359,3.83654 -2.609538,-0.77986 0.217805,2.39167 -1.213901,0.30231 0.739429,5.30729 -2.520318,-3.89272 -3.504078,-8.37218 -2.211255,-1.2625 -4.1771432,-7.17893 0.22333,4.58431 -3.708133,-3.19988 -0.186285,1.0159 0.396807,4.84079 0.602368,7"
         stroke-opacity="0"
         id="path41"
         style="stroke-width:3.13929" />
    </g>
  </g>
</svg>
