<?xml version="1.0" encoding="UTF-8"?>
<!-- Created with Inkscape (http://www.inkscape.org/) -->
<svg width="1549.4mm" height="1102.4mm" version="1.1" viewBox="0 0 1549.4 1102.4" xmlns="http://www.w3.org/2000/svg" xmlns:xlink="http://www.w3.org/1999/xlink">
 <defs>
  <linearGradient id="linearGradient2" x1="46.879" x2="44.876" y1="-659.23" y2="-1319.3" gradientTransform="matrix(1 0 0 1.631 124.24 1425.5)" gradientUnits="userSpaceOnUse">
   <stop stop-color="#5affff" stop-opacity=".82353" offset="0"/>
   <stop stop-color="#5affff" stop-opacity="0" offset="1"/>
  </linearGradient>
 </defs>
 <g transform="translate(573.72 356.66)">
  <text transform="scale(.9581 1.0437)" x="183.50526" y="684.65002" fill="#000000" font-family="sans-serif" font-size="20.931px" letter-spacing="0px" stroke-width="1.7443px" word-spacing="0px" style="line-height:0%" xml:space="preserve"><tspan x="183.50526" y="684.65002" font-size="69.772px" stroke-width="1.7443px" style="line-height:1.25"> </tspan></text>
  <rect transform="scale(1,-1)" x="-573.72" y="-745.74" width="1549.4" height="1102.4" fill="url(#linearGradient2)"/>
  <g fill="#fff" fill-opacity=".92941" fill-rule="evenodd">
   <path d="m-556.58 562.71c23.9 19.898 27.521 6.1704 54.236 5.5524 33.252 7.7987 37.682 8.766 51.259 5.5839 29.794-22.97 74.236 1.8707 98.366-6.2865-12.56-11.08-46.883 3.0538-49.432-25.902-20.752-20.842-29.852-28.331-41.609-16.141-17.632 22.98-14.978 13.38-35.267 13.041-24.026-22.054-58.908-29.497-77.151-0.18331-40.401 2.3793-38.35 12.478-77.239 14.085 27.724-1.3213 49.49 4.6071 76.834 10.251z" stroke-width="2.217"/>
   <path d="m605.37 646.63c15.659 13.037 18.032 4.0427 35.535 3.6378 21.786 5.1096 24.689 5.7434 33.584 3.6585 19.52-15.05 48.638 1.2256 64.448-4.1188-8.2289-7.2597-30.717 2.0008-32.387-16.971-13.596-13.656-19.559-18.562-27.261-10.575-11.552 15.056-9.8134 8.7666-23.106 8.5441-15.742-14.449-38.595-19.326-50.548-0.12011-26.47 1.5589-25.126 8.1752-50.606 9.2283 18.164-0.86568 32.425 3.0185 50.34 6.7161z" stroke-width="1.4525"/>
   <path d="m781.04 397.11c29.532 24.588 34.007 7.6246 67.018 6.8609 41.088 9.6366 46.563 10.832 63.339 6.8999 36.816-28.383 91.731 2.3115 121.55-7.768-15.52-13.692-57.932 3.7735-61.082-32.007-25.642-25.754-36.887-35.008-51.415-19.945-21.787 28.395-18.508 16.534-43.579 16.114-29.689-27.252-72.791-36.449-95.333-0.22648-49.922 2.9401-47.388 15.418-95.442 17.405 34.258-1.6327 61.154 5.6928 94.942 12.667z" stroke-width="2.7395"/>
   <path d="m-199.13 165.81c15.446 12.86 17.787 3.9878 35.052 3.5884 21.49 5.0402 24.354 5.6654 33.128 3.6088 19.255-14.845 47.977 1.209 63.573-4.0628-8.1171-7.1612-30.3 1.9736-31.947-16.74-13.411-13.47-19.293-18.31-26.891-10.432-11.395 14.851-9.6802 8.6475-22.793 8.4281-15.528-14.253-38.071-19.064-49.862-0.11846-26.11 1.5377-24.785 8.0642-49.919 9.103 17.918-0.85392 31.985 2.9775 49.657 6.6249z" stroke-width="1.4328"/>
   <path d="m-326.15-120.05c14.556 12.119 16.762 3.758 33.032 3.3816 20.252 4.7498 22.95 5.3389 31.219 3.4009 18.146-13.99 45.213 1.1393 59.909-3.8287-7.6494-6.7485-28.554 1.8599-30.106-15.776-12.639-12.694-18.181-17.255-25.342-9.8305-10.738 13.995-9.1223 8.1492-21.479 7.9424-14.633-13.432-35.877-17.965-46.988-0.1116-24.606 1.4491-23.357 7.5994-47.042 8.5784 16.885-0.8047 30.142 2.8059 46.795 6.2431z" stroke-width="1.3502"/>
   <path d="m530.85 19.878c8.3042 6.9138 9.5626 2.144 18.845 1.9292 11.554 2.7097 13.093 3.0459 17.81 1.9402 10.352-7.9812 25.794 0.64998 34.178-2.1843-4.364-3.85-16.29 1.0611-17.176-9-7.2104-7.2419-10.372-9.8439-14.457-5.6083-6.1264 7.9845-5.2043 4.6491-12.254 4.5311-8.3482-7.6629-20.468-10.249-26.807-0.06368-14.038 0.82672-13.325 4.3355-26.837 4.894 9.633-0.4591 17.196 1.6008 26.697 3.5617z" stroke-width=".77032"/>
   <path d="m816.77-84.216c14.556 12.119 16.762 3.758 33.032 3.3816 20.252 4.7498 22.95 5.3389 31.219 3.4009 18.146-13.99 45.213 1.1393 59.909-3.8287-7.6494-6.7485-28.554 1.8599-30.106-15.776-12.639-12.694-18.181-17.255-25.342-9.8305-10.738 13.995-9.1223 8.1492-21.479 7.9424-14.633-13.432-35.877-17.965-46.988-0.1116-24.606 1.4491-23.357 7.5994-47.042 8.5784 16.885-0.8047 30.142 2.8059 46.795 6.2431z" stroke-width="1.3502"/>
  </g>
 </g>
</svg>
