<?xml version="1.0" encoding="UTF-8"?>
<!-- Created with Inkscape (http://www.inkscape.org/) -->
<svg width="86.737mm" height="27.367mm" version="1.1" viewBox="0 0 86.737 27.367" xmlns="http://www.w3.org/2000/svg">
 <g transform="translate(-37.306 -28.575)" fill="var(--logo-color)">
  <path d="m66.878 28.575h6.1451v7.3822q0.73414-0.35348 1.5091-0.54381t1.5906-0.19033q1.5635 0 2.8958 0.5846 1.3323 0.5846 2.2976 1.5906 0.96526 1.006 1.5091 2.352 0.55741 1.3459 0.55741 2.855 0 1.5227-0.54381 2.8686-0.53022 1.3459-1.4955 2.352-0.96526 0.99246-2.2976 1.5771-1.3323 0.571-2.923 0.571-0.8565 0-1.6314-0.16314t-1.4683-0.46224v0.38067h-4.1737v-17.429h-1.9713zm8.9593 10.4q-0.89729 0-1.6178 0.40786-0.70695 0.40786-1.1964 1.1692v4.2145q0.43505 0.65257 1.1556 1.0604 0.73414 0.39426 1.6314 0.39426 0.69336 0 1.3187-0.24471 0.62538-0.25831 1.0876-0.72055 0.47583-0.47584 0.74774-1.1284 0.2719-0.66617 0.2719-1.4955 0-0.84291-0.2719-1.5227t-0.73414-1.1556-1.0876-0.72055q-0.61179-0.25831-1.3051-0.25831zm20.985 1.7946h-3.8203v-1.4547q-0.55741 0-1.0196 0.08157-0.46224 0.06798-0.81572 0.24472-0.33988 0.17674-0.5846 0.48943-0.23112 0.31269-0.32629 0.77493v5.0982h2.8686v3.7251h-9.1904v-3.7251h2.1073v-6.6345h-2.0801v-3.7251h6.2674v0.99246q0.59819-0.47584 1.3459-0.73414 0.74774-0.25831 1.6314-0.25831 0.89729 0 1.849 0.0136 0.95167 0.0136 1.7674 0.0136zm1.0412-5.1254h6.3218v10.36h1.9577v3.7251h-8.2795v-3.7251h2.1209v-6.6345h-2.1209zm1.9033-4.5408q0-0.50302 0.17674-0.93807 0.19034-0.44864 0.51662-0.77493 0.32629-0.32629 0.76134-0.51662 0.44864-0.19033 0.96526-0.19033 0.48943 0 0.92448 0.19033t0.76133 0.51662q0.32629 0.32629 0.51662 0.77493 0.19034 0.43505 0.19034 0.93807 0 0.50302-0.19034 0.95167-0.19033 0.43505-0.51662 0.76134-0.32628 0.32629-0.76133 0.51662-0.43505 0.19033-0.92448 0.19033-0.51662 0-0.96526-0.19033-0.43505-0.19033-0.76134-0.51662-0.32628-0.32629-0.51662-0.76134-0.17674-0.44864-0.17674-0.95167zm7.2814-2.5287h6.349v12.195h2.3792l0.97886-1.4003v-3.7251h7.2871v3.7251h-2.5287l-2.6239 3.0317 2.6783 3.2357h2.3384v4.0922h-3.8203l-4.568-6.0363h-2.1209v2.3112h1.4411v3.7251h-7.7901v-3.7251h2.1752v-13.704h-2.1752z"/>
  <path d="m47.72 48.492q-0.69336 0.73414-1.6178 1.142-0.91088 0.40786-2.0801 0.40786-1.4275 0-2.6647-0.48943-1.2236-0.50302-2.1345-1.4547-0.89729-0.96526-1.4139-2.352-0.50302-1.4003-0.50302-3.1949 0-1.6314 0.48943-2.9638 0.48943-1.3459 1.3867-2.284 0.89729-0.95167 2.1616-1.4683 1.2644-0.53022 2.8142-0.53022 1.0604 0 1.9033 0.24472 0.8565 0.23112 1.6586 0.81572v-0.72055h2.5287v13.527q0 3.3444-1.5906 5.0574-1.5771 1.713-4.9215 1.713-0.73414 0-1.5363-0.10876-0.80212-0.10876-1.5906-0.35348-0.77493-0.23112-1.5227-0.59819-0.73414-0.36707-1.3595-0.89729l1.3595-2.0529q0.40786 0.35348 0.92448 0.65257 0.53022 0.2991 1.1284 0.50302 0.59819 0.21752 1.2372 0.33988t1.278 0.12236q1.0468 0 1.8082-0.21752 0.77493-0.21752 1.2644-0.77493 0.50302-0.54381 0.74774-1.4819 0.24472-0.93807 0.24472-2.3792zm-3.3716-0.65257q0.62538 0 1.142-0.12236 0.51662-0.12236 0.93807-0.31269 0.42145-0.20393 0.73414-0.46224 0.32629-0.25831 0.55741-0.54381v-7.7085q-0.69336-0.61179-1.6042-0.88369-0.89729-0.2719-1.849-0.2719-0.89729 0-1.6858 0.33988-0.78852 0.32629-1.3867 0.96526-0.5846 0.63898-0.92448 1.5635-0.33988 0.92448-0.33988 2.1209 0 1.3051 0.32629 2.2976t0.91088 1.6722q0.5846 0.66617 1.4003 1.006 0.81572 0.33988 1.781 0.33988zm7.9204-5.1526q0.0136-1.6722 0.53022-3.0453 0.53022-1.3731 1.4683-2.352 0.93807-0.99245 2.2296-1.5227 1.2916-0.53022 2.8414-0.53022 1.5635 0 2.855 0.53022 1.3051 0.53022 2.2296 1.5091 0.92448 0.96526 1.4411 2.3384 0.51662 1.3731 0.51662 3.0453 0 1.645-0.51662 3.0317-0.51662 1.3731-1.4411 2.3656t-2.2296 1.5499q-1.2916 0.54381-2.855 0.54381-1.5906 0-2.8822-0.54381t-2.216-1.5227q-0.92448-0.99245-1.4411-2.3656-0.51662-1.3731-0.53022-3.0317zm2.6783 0q0 1.21 0.33988 2.1888 0.35348 0.97886 0.95167 1.6722 0.61179 0.67976 1.4003 1.0604 0.80212 0.36707 1.6994 0.36707 0.93807 0 1.7402-0.36707 0.81572-0.36707 1.4139-1.0468 0.59819-0.69336 0.93807-1.6722 0.33988-0.97886 0.33988-2.2024 0-1.278-0.33988-2.2704-0.33988-0.99245-0.93807-1.6586-0.5846-0.66617-1.4003-1.006-0.81572-0.33988-1.7538-0.33988-0.89729 0-1.6994 0.33988-0.78853 0.33988-1.4003 1.006-0.59819 0.66617-0.95167 1.6586-0.33988 0.99245-0.33988 2.2704z"/>
 </g>
</svg>
