<?xml version="1.0" encoding="UTF-8"?>
<!-- Created with Inkscape (http://www.inkscape.org/) -->
<svg width="97.084mm" height="97.084mm" version="1.1" viewBox="0 0 97.084 97.084" xmlns="http://www.w3.org/2000/svg">
 <defs>
  <linearGradient id="linearGradient22" x1="465.52" x2="255.14" y1="826.25" y2="437.48" gradientTransform="matrix(.18985 0 0 .19 30.234 26.381)" gradientUnits="userSpaceOnUse">
   <stop stop-color="#fff" stop-opacity=".15201" offset="0"/>
   <stop stop-color="#f2f2f2" stop-opacity="0" offset="1"/>
  </linearGradient>
  <clipPath id="clipPath6603-6">
   <path transform="matrix(.38984 -.0015378 .0015378 .38984 -191.48 -165.47)" d="m638.86 565.08-22.197-0.0302-0.56345 14.49 3.0937-3e-3c-0.0212 1.8291-0.0475 3.627-0.072 5.4948-4.3123 5.3811-8.475 4.9838-12.401 11.695-3.0607 12.43-0.64511 18.1 0.89325 27.415 1.1251 12.423-2.7724 12.529-1.908 35.529-0.0464 4.8162 4.2193 9.865 9.1615 9.7536l9.3328-9.4e-4v1e-3l16.495-6.7e-4c4.9422 0.11143 9.2079-4.9365 9.1615-9.7526 0.86445-23-3.0338-23.107-1.9088-35.531 1.5384-9.3143 3.9534-14.985 0.89275-27.415-3.9264-6.7113-8.0891-6.314-12.401-11.695-0.0246-1.8743-0.0507-3.679-0.0719-5.515l2.8867-4e-3 -0.39342-14.432z" fill="#fff" filter="url(#filter4530-5-2)" stroke="#000" stroke-linecap="round" stroke-linejoin="round" stroke-width="3.37"/>
  </clipPath>
  <filter id="filter1" x="-.81265" y="-.20447" width="2.6253" height="1.4089" color-interpolation-filters="sRGB">
   <feGaussianBlur result="blur" stdDeviation="5.94275 3.76793"/>
  </filter>
 </defs>
 <g transform="translate(-56.24 -99.897)">
  <rect x="56.914" y="100.57" width="95.736" height="95.736" ry="24.866" fill="url(#linearGradient22)" stroke="#000" stroke-width="1.3474"/>
  <g transform="matrix(1.108 0 0 1.108 -11.408 -16.032)">
   <path d="m87.183 128.09 10.35-5.0213 1.2297 2.9718 9.4278 2.152 4.6114 5.1238 3.8941 10.555 4.9188 10.658 6.456 10.248 0.71734 7.7882-11.99 8.403-8.403 2.4594-4.4065-1.7421-5.3288-10.248-4.4065-12.707-6.251-8.1981-3.6891-9.0179 1.5371-5.2263 2.9718-5.2263z" fill="#f9f9f9" stroke="#000" stroke-width=".23878"/>
   <g transform="matrix(1.5542 -.74569 .74569 1.5542 -36.156 73.322)" clip-path="url(#clipPath6603-6)" fill-rule="evenodd" filter="url(#filter1)">
    <path d="m45.708 66.816 0.43519-9.7918c8.7427-10.184 13.385-2.9161 16.32 0.2176l0.2176 9.3566c-6.9137 3.8778-11.353 0.2398-16.972 0.21759z" fill="#f0f"/>
    <path d="m45.578 74.494 0.43519-9.7918c8.0577-1.7312 10.172 3.8557 16.32 0.2176l0.2176 9.3566z" fill="#00d6ff"/>
    <path d="m46.156 80.201-0.12695-8.7097c2.5623-3.0488 10.077 6.2534 16.882-0.8645l0.2176 9.3566c-5.8463 0.63489-12.788 4.5331-16.972 0.21759z" fill="#00f200"/>
    <path d="m45.926 89.701 0.43519-9.7918c7.9476 3.6455 11.478-3.8916 16.32 0.2176l0.2176 9.3566z" fill="#fff100"/>
    <path d="m45.919 96.017 0.43553-8.935c8.0493 0.61277 11.765 4.5126 16.332 0.19856l0.21776 8.5379z" fill="#f00"/>
   </g>
   <g stroke="#000" stroke-linecap="round" stroke-linejoin="round">
    <path d="m91.644 120.01c-2.0808 1.4332-7.103 2.4326-5.8348 5.0548 1.0118 2.0921 1.8428 3.8965 2.7671 5.8686-1.0307 4.5181-3.6644 5.4981-4.0719 10.708 1.792 8.414 4.9145 11.135 8.5747 16.317 4.3215 7.1833 1.9957 8.3902 9.2595 22.046 1.3836 2.9261 5.1788 3.8407 8.399 3.2131" fill-opacity="0" stroke-width="2.2648"/>
    <path d="m88.574 121.5c2.4141-0.74523 6.3103-4.068 7.5828-1.4479 1.0152 2.0904 1.9164 3.8608 2.892 5.8082 4.185 1.9903 6.586 0.53027 10.928 3.4382 5.494 6.6198 5.6952 10.757 7.4948 16.841 2.9608 7.8428 5.3492 6.765 11.567 20.928 1.4394 2.899 0.41504 5.6389-2.682 8.5833-2.1218 1.5863-6.5208 5.3497-15.619 7.5697" fill="none" stroke-width="2.2648"/>
    <path d="m81.233 119.57c4.2244-4.4399 8.522-5.8179 13.432-6.4875l4.4685 8.6129c-3.6441 4.0826-8.1898 6.0561-13.995 6.8026z" fill="#2479b3" fill-rule="evenodd" stroke-width="1.7467"/>
    <path d="m82.869 119.82c3.4686-3.6488 6.3151-4.5155 10.711-5.4358-3.4854 3.2337-6.4715 4.2174-10.711 5.4358z" fill="#333" stroke-width="1.3495"/>
   </g>
  </g>
 </g>
</svg>
