<?xml version="1.0" encoding="UTF-8" standalone="no"?>
<!-- Created with Inkscape (http://www.inkscape.org/) -->

<svg
   width="168.70805mm"
   height="62.91975mm"
   version="1.1"
   viewBox="0 0 168.70805 62.919754"
   id="svg131"
   sodipodi:docname="message-sent-day.svg"
   inkscape:version="1.3.2 (1:1.3.2+202404261509+091e20ef0f)"
   xmlns:inkscape="http://www.inkscape.org/namespaces/inkscape"
   xmlns:sodipodi="http://sodipodi.sourceforge.net/DTD/sodipodi-0.dtd"
   xmlns="http://www.w3.org/2000/svg"
   xmlns:svg="http://www.w3.org/2000/svg">
  <sodipodi:namedview
     id="namedview131"
     pagecolor="#ffffff"
     bordercolor="#000000"
     borderopacity="0.25"
     inkscape:showpageshadow="2"
     inkscape:pageopacity="0.0"
     inkscape:pagecheckerboard="0"
     inkscape:deskcolor="#d1d1d1"
     inkscape:document-units="mm"
     inkscape:zoom="1.1785767"
     inkscape:cx="351.27117"
     inkscape:cy="64.908803"
     inkscape:window-width="1803"
     inkscape:window-height="1125"
     inkscape:window-x="0"
     inkscape:window-y="0"
     inkscape:window-maximized="1"
     inkscape:current-layer="svg131" />
  <defs
     id="defs8">
    <linearGradient
       id="linearGradient50606"
       x1="421.45999"
       x2="458.98999"
       y1="81.216003"
       y2="80.958"
       gradientTransform="matrix(0.36219,-0.0075634,0.0085593,0.45242,-122.38,55.957)"
       gradientUnits="userSpaceOnUse">
      <stop
         stop-color="#d1a448"
         offset="0"
         id="stop1" />
      <stop
         stop-color="#9b7527"
         stop-opacity=".9918"
         offset="1"
         id="stop2" />
    </linearGradient>
    <linearGradient
       id="linearGradient33560"
       x1="439.64001"
       x2="412.56"
       y1="53.484001"
       y2="53.870998"
       gradientTransform="matrix(0.36219,-0.0075634,0.0085593,0.45242,-123.44,56.069)"
       gradientUnits="userSpaceOnUse">
      <stop
         stop-color="#96312a"
         offset="0"
         id="stop3" />
      <stop
         stop-color="#65211c"
         stop-opacity=".9959"
         offset="1"
         id="stop4" />
    </linearGradient>
    <linearGradient
       id="linearGradient33562"
       x1="419.64999"
       x2="452.28"
       y1="64.963997"
       y2="65.350998"
       gradientTransform="matrix(0.36219,-0.0071478,0.0085593,0.42756,-122.85,57.356)"
       gradientUnits="userSpaceOnUse">
      <stop
         stop-color="#c33f37"
         offset="0"
         id="stop5" />
      <stop
         stop-color="#b33a33"
         stop-opacity=".98039"
         offset="1"
         id="stop6" />
    </linearGradient>
    <linearGradient
       id="linearGradient15121"
       x1="367.10999"
       x2="367.22"
       y1="87.487"
       y2="90.810997"
       gradientUnits="userSpaceOnUse">
      <stop
         stop-color="#916f6f"
         offset="0"
         id="stop7" />
      <stop
         stop-color="#685050"
         stop-opacity=".9918"
         offset="1"
         id="stop8" />
    </linearGradient>
    <clipPath
       id="clipPath14">
      <ellipse
         transform="matrix(0.9996,0.028384,-0.013912,0.9999,0,0)"
         cx="106.13"
         cy="91.443001"
         rx="117.86"
         ry="38.66"
         fill="#00ffff"
         stroke-width="0.32164"
         id="ellipse8" />
    </clipPath>
  </defs>
  <g
     transform="matrix(0.93555178,0,0,1,-12.419451,-42.158998)"
     style="mix-blend-mode:difference"
     id="g19">
    <ellipse
       cx="103.44"
       cy="70.320999"
       rx="90.165001"
       ry="28.162001"
       fill="#0ff"
       stroke-width="0.2401"
       id="ellipse9"
       style="fill:#00ffff;fill-opacity:1" />
    <g
       transform="matrix(0.92895,-0.020679,0.012925,0.72824,6.7956,3.7091)"
       clip-path="url(#clipPath14)"
       fill="#32c63d"
       opacity="0.86056"
       id="g14">
      <path
         d="m 80.205,119.5 c 0.78266,-2.441 0.81359,-1.1754 0.65624,-0.19034 0.77965,-1.7561 -0.32288,1.803 0.76204,-0.35445 -0.75132,2.4271 1.2715,-2.1531 0.33244,0.5636 1.0464,-1.8257 1.165,-2.0814 0.37675,0.0521 0.44508,-0.57094 1.0677,-1.6394 0.39586,0.51681 0.64173,-0.43065 0.47837,-0.97874 0.49353,0.0549 0.88314,-0.46552 -0.51607,1.2081 0.83446,-0.22535 -0.0797,0.75977 0.3853,0.10695 -0.25842,1.6837 0.81951,-1.2176 1.1522,-2.6355 0.7097,-0.38257 1.3613,-2.2495 -0.09093,1.4581 1.1948,-0.9864 0.05491,0.32522 -0.14729,1.5382 -0.22208,2.224"
         fill="#32c63d"
         stroke-opacity="0"
         id="path9" />
      <path
         d="m 15.274,121.06 c -0.05467,-5.4217 -0.58405,-11.475 6.9305,-6.8322 2.1259,-2.8852 0.42816,-6.2696 7.0794,-8.564 l 0.56058,1.7068 c 6.613,-1.8719 5.6384,-0.5814 6.6693,1.4147 1.5957,-3.9695 5.014,-4.3044 8.2441,-5.0149 8.2767,-0.86306 7.3899,4.0338 9.8397,6.8333 2.3327,-2.4244 3.9663,-6.9934 9.5577,-2.9283 1.9929,-3.972 4.0214,-7.7994 8.785,-0.51663 3.1456,-5.3403 5.7476,-6.0531 7.8647,-2.6387 8.658432,7.51586 3.330931,9.85925 4.831629,17.22795 z"
         fill="#26972e"
         stroke-width="0.32162"
         id="path10"
         sodipodi:nodetypes="cccccccccccc" />
      <path
         d="m 9.0677,127.45 c -2.6365,-6.3204 27.569,-15.03 37.542,-15.489 16.721,-0.76192 39.3,6.6615 44.083,15.534 0.2996,0.55578 0.16868,0.31312 0.38521,0.78324 0.28639,0.6218 0.38004,1.2773 -0.0052,1.5815 -14.96,12.445 -66.933,11.824 -82.006,-2.4102 z"
         fill="#32c63d"
         id="path11" />
      <path
         d="m 28.658,116.04 c -0.50948,-2.5589 -0.67781,-1.3119 -0.62917,-0.30821 -0.58102,-1.8804 0.12358,1.8434 -0.71609,-0.48995 0.47994,2.5394 -1.0249,-2.3632 -0.39054,0.49711 -0.83757,-1.9981 -0.92721,-2.2728 -0.37876,-0.0173 -0.37864,-0.64637 -0.87894,-1.8175 -0.44824,0.43922 -0.58864,-0.54341 -0.36724,-1.0561 -0.49471,-0.0358 -0.8239,-0.62205 0.37962,1.2899 -0.80184,-0.37544 -0.0037,0.76654 -0.39321,0.0355 0.07271,1.7136 -0.67907,-1.3547 -0.85424,-2.8188 -0.66119,-0.50827 -1.1034,-2.475 -0.0686,1.4597 -1.0759,-1.1944 -0.08979,0.31182 -0.02151,1.5493 -0.02206,2.2417"
         fill="#32c63d"
         stroke-opacity="0"
         id="path12" />
      <path
         d="m 185.13,131.15 c 0.63699,-5.3569 -0.34021,-14.314 -8.2782,-11.119 -1.7943,-3.2523 2.4021,-3.2224 -3.9356,-6.7332 l -2.7632,1.5277 c -6.3452,-3.0854 -3.4943,-1.5688 -4.7294,0.21509 -1.1529,-4.2269 -4.3756,-2.5316 -7.4967,-3.8368 -4.6285,-5.1958 -7.8744,-0.0478 -10.6,2.267 -2.0485,-2.8347 0.12337,-8.5676 -5.8487,-5.5854 -1.0198,-2.8389 -3.5257,-3.1504 -6.6721,-2.6303 -1.6232,0.26829 -3.3956,-0.7641 -5.2668,1.3873 -2.5399,-5.8727 -5.039,-7.0633 -7.5019,-4.0778 -1.80381,1.35734 -0.59305,7.67831 -2.02201,8.17869 -7.51199,2.63051 -5.00075,6.76318 -6.52659,12.17931 z"
         fill="#26972e"
         stroke-width="0.32162"
         id="path13"
         sodipodi:nodetypes="ccccccccsccscc" />
      <path
         d="m 185.95,134.06 c 2.8102,-6.1657 -27.129,-16.584 -37.082,-17.608 -16.687,-1.7106 -39.454,4.4252 -44.481,13.02 -0.31483,0.53833 -0.17725,0.3033 -0.40669,0.76075 -0.30346,0.60506 -0.41527,1.2547 -0.039,1.5805 14.602,13.284 66.552,15.615 82.008,2.247 z"
         fill="#32c63d"
         id="path14" />
    </g>
    <g
       transform="matrix(0.090962,0,0,0.090962,-30.683,344.62)"
       fill="#ffffff"
       id="g18">
      <path
         d="m 870.53,-3108 c -1.7571,5e-4 -3.4298,0.3656 -4.977,0.9983 -2.3148,-10.109 -10.856,-17.617 -21.046,-17.617 -10.193,-1e-4 -18.735,7.5079 -21.047,17.616 -1.5463,-0.6331 -3.223,-0.9977 -4.9783,-0.9977 -7.6652,0 -13.878,6.6331 -13.878,14.81 0,8.1793 6.2132,14.81 13.878,14.809 2.4052,1e-4 14.43,1e-4 26.026,1e-4 11.594,1e-4 23.617,1e-4 26.023,-1e-4 7.6645,1e-4 13.878,-6.6301 13.878,-14.81 -7e-5,-8.1764 -6.2136,-14.81 -13.878,-14.81 z"
         stroke-width="0.24007"
         id="path15" />
      <path
         d="m 1930.0827,-3011.0864 c -1.3989,0 -2.7306,0.2724 -3.962,0.7449 -1.8428,-7.5431 -8.6417,-13.146 -16.7545,-13.146 -8.1148,2e-4 -14.9147,5.6027 -16.7552,13.146 -1.2307,-0.4723 -2.5659,-0.7447 -3.963,-0.7447 -6.1023,-10e-5 -11.0485,4.95 -11.0485,11.0518 -10e-5,6.1033 4.946,11.0511 11.0485,11.0511 1.9145,2e-4 11.487,0 20.7185,10e-5 9.2295,-10e-5 18.801,-10e-5 20.7164,-10e-5 6.1015,0 11.0478,-4.9474 11.0478,-11.0511 0,-6.1014 -4.9466,-11.0512 -11.0478,-11.0518 z"
         stroke-width="0.185032"
         id="path16" />
      <path
         d="m 2114.7,-3137.2 c -1.6645,-6e-4 -3.2489,0.3244 -4.7145,0.8864 -2.1924,-8.9753 -10.282,-15.642 -19.934,-15.642 -9.6553,10e-5 -17.746,6.6665 -19.936,15.642 -1.4644,-0.5619 -3.053,-0.886 -4.7154,-0.8862 -7.2605,2e-4 -13.146,5.89 -13.146,13.15 -2e-4,7.2624 5.8852,13.149 13.146,13.149 2.2777,0 13.668,-4e-4 24.652,0 h 24.649 c 7.2597,0 13.146,-5.8869 13.146,-13.149 0,-7.2596 -5.8859,-13.149 -13.145,-13.15 z"
         stroke-width="0.22016"
         id="path17" />
      <path
         d="m 1067.3,-3165.7 c -1.412,-5e-4 -2.7561,0.2752 -3.9993,0.752 -1.8599,-7.6138 -8.7226,-13.269 -16.91,-13.269 -8.1906,1e-4 -15.054,5.6552 -16.912,13.269 -1.2422,-0.4767 -2.5899,-0.7516 -4.0001,-0.7518 -6.159,2e-4 -11.152,4.9965 -11.152,11.155 -2e-4,6.1607 4.9924,11.154 11.152,11.154 1.9322,0 11.595,-3e-4 20.912,0 h 20.91 c 6.1584,0 11.151,-4.9939 11.151,-11.154 0,-6.1584 -4.993,-11.155 -11.151,-11.155 z"
         stroke-width="0.18676"
         id="path18" />
    </g>
  </g>
  <g
     transform="translate(-20.915568,-42.158998)"
     id="g44">
    <g
       transform="matrix(0.92895,-0.020679,0.012925,0.72824,55.479,5.1355)"
       fill="#2db337"
       id="g42">
      <path
         d="m 9.0677,127.45 c -2.6365,-6.3204 27.401676,-16.3487 34.129676,-17.7237 3.211673,-0.20801 7.777002,-0.8166 13.938936,0.69551 13.173773,3.23277 30.298642,11.02872 33.557388,17.07419 0.299591,0.55579 0.16868,0.31312 0.38521,0.78324 0.28639,0.6218 0.38004,1.2773 -0.0052,1.5815 -14.96,12.445 -66.933,11.824 -82.006,-2.4102 z"
         id="path40"
         sodipodi:nodetypes="ccsssccc" />
      <g
         id="g1"
         transform="translate(-1.0461977,0.35683298)">
        <path
           inkscape:connector-curvature="0"
           style="opacity:0.2;fill:#1a1a1a;fill-opacity:1;stroke-width:0.131843"
           d="m 63.353556,117.00574 c -0.03763,2.70464 -6.33862,4.72521 -14.073543,4.50557 -7.734922,-0.21964 -13.974757,-2.59632 -13.937125,-5.30096 0.03763,-2.70469 6.338643,-4.72495 14.073565,-4.50531 7.734803,0.21964 13.974736,2.59601 13.937103,5.3007 z"
           id="path4"
           inkscape:export-xdpi="78.422279"
           inkscape:export-ydpi="78.422279" />
        <g
           transform="matrix(0.13744579,0.00390289,-0.00243943,0.17532718,429.80544,598.25872)"
           id="g13018"
           inkscape:export-xdpi="78.422279"
           inkscape:export-ydpi="78.422279">
          <path
             style="fill:#919191;stroke:#231f20;stroke-width:4;stroke-linecap:round;stroke-linejoin:round;stroke-miterlimit:10"
             inkscape:connector-curvature="0"
             stroke-miterlimit="10"
             d="m -2822.141,-2705.662 v -42.16 c 0,-2.578 2.096,-4.675 4.674,-4.675 2.576,0 4.672,2.097 4.672,4.675 v 41.431 c 55.233,0.631 53.779,12.346 53.779,12.346 h -71.706 c -0.715,-7.505 4.48,-10.457 8.581,-11.617 z"
             id="path13004" />
          <path
             style="fill:#919191;stroke:#231f20;stroke-width:4;stroke-linecap:round;stroke-linejoin:round;stroke-miterlimit:10"
             inkscape:connector-curvature="0"
             stroke-miterlimit="10"
             d="m -2843.961,-2697.655 v -42.16 c 0,-2.579 2.096,-4.674 4.675,-4.674 2.583,0 4.679,2.095 4.679,4.674 v 41.426 c 55.227,0.636 53.772,12.352 53.772,12.352 h -71.705 c -0.718,-7.507 4.482,-10.457 8.579,-11.618 z"
             id="path13006" />
          <path
             style="fill:#ffffff;stroke:#231f20;stroke-width:4;stroke-linecap:round;stroke-linejoin:round;stroke-miterlimit:10"
             inkscape:connector-curvature="0"
             stroke-miterlimit="10"
             d="m -2917.074,-2764.424 c -0.069,-0.612 99.626,-97.947 133.433,-97.947 33.802,0 61.219,27.413 61.219,61.221 0,33.816 -27.417,61.23 -61.219,61.23 -28.163,0 -102.046,5.157 -125.971,-12.646 -37.363,66.929 -71.234,23.368 -71.234,23.368 z"
             id="path13008" />
          <path
             style="fill:#ffffff;stroke:#231f20;stroke-width:4;stroke-linecap:round;stroke-linejoin:round;stroke-miterlimit:10"
             inkscape:connector-curvature="0"
             stroke-miterlimit="10"
             d="m -2734.987,-2822.647 c 24.788,-8.118 40.457,-33.453 35.755,-59.871 -5.164,-28.92 -32.781,-48.184 -61.703,-43.031 -28.925,5.157 -48.182,32.775 -43.032,61.701 0.872,4.893 2.388,9.508 4.447,13.771"
             id="path13010" />
          <path
             style="fill:#ffd500;fill-opacity:1;stroke:#231f20;stroke-width:4;stroke-linecap:round;stroke-linejoin:round;stroke-miterlimit:10"
             inkscape:connector-curvature="0"
             stroke-miterlimit="10"
             d="m -2717.279,-2835.264 c -28.349,2.932 -28.914,-24.668 -4.88,-27.371 0,0 10.768,-11.717 22.927,-19.883 15.36,18.48 43.516,19.977 46.341,49.161 z"
             id="path13012" />
          <path
             style="fill:#ececec;stroke:#231f20;stroke-width:4;stroke-linecap:round;stroke-linejoin:round;stroke-miterlimit:10"
             inkscape:connector-curvature="0"
             stroke-miterlimit="10"
             d="m -2747.035,-2806.25 c 0,0 9.356,48.997 -31.167,52.895 0,0 -110.677,6.229 -109.108,-14.807 l 41.761,-17.929"
             id="path13014" />
          <circle
             style="fill:#231f20"
             cx="-2755.46"
             cy="-2884.991"
             r="8.4729996"
             id="circle13016" />
          <path
             style="opacity:1;fill:#ececec;fill-opacity:1;stroke-width:2.07142"
             d="m -2843.7357,-2785.0943 45.1674,-20.5046 c 23.5539,-9.4499 33.2767,-6.9727 49.4053,0.091 l -1.6129,16.0906 z"
             id="path1"
             sodipodi:nodetypes="ccccc" />
        </g>
        <path
           inkscape:connector-curvature="0"
           style="fill:none;stroke:#231f20;stroke-width:0.465798;stroke-linecap:round;stroke-linejoin:round;stroke-miterlimit:10"
           stroke-miterlimit="10"
           d="m 72.088367,91.140353 c 0,0 -9.919613,-1.398457 -10.18706,-3.254866"
           id="path14352"
           inkscape:export-xdpi="78.422279"
           inkscape:export-ydpi="78.422279" />
        <path
           style="fill:#e6e6e6;stroke:#000000;stroke-width:0.383723;stroke-linecap:butt;stroke-linejoin:miter;stroke-miterlimit:4;stroke-dasharray:none;stroke-opacity:1"
           d="m 66.163541,90.119155 -5.965759,6.180913 12.357954,3.068218 5.914348,-11.307812 -7.28364,-1.966321 -0.821283,0.714572 c 1.147904,1.664701 1.744644,3.366591 1.723314,4.331676 z"
           id="path12911"
           inkscape:connector-curvature="0"
           sodipodi:nodetypes="cccccccc"
           inkscape:export-xdpi="78.422279"
           inkscape:export-ydpi="78.422279" />
        <path
           style="fill:none;stroke:#000000;stroke-width:0.215575;stroke-linecap:butt;stroke-linejoin:miter;stroke-miterlimit:4;stroke-dasharray:none;stroke-opacity:1"
           d="m 60.197782,96.300068 13.075599,-5.983051 -2.086936,-4.222955 v 0"
           id="path13723"
           inkscape:connector-curvature="0"
           sodipodi:nodetypes="cccc"
           inkscape:export-xdpi="78.422279"
           inkscape:export-ydpi="78.422279" />
        <path
           style="fill:#ff00ff;stroke:#000000;stroke-width:0.215575;stroke-linecap:butt;stroke-linejoin:miter;stroke-miterlimit:4;stroke-dasharray:none;stroke-opacity:1"
           d="m 65.417915,92.992084 -2.242328,2.268418 3.522981,0.622837 1.643909,-2.242739 z"
           id="path13720"
           inkscape:connector-curvature="0"
           sodipodi:nodetypes="ccccc"
           inkscape:export-xdpi="78.422279"
           inkscape:export-ydpi="78.422279" />
        <path
           style="fill:none;stroke:#000000;stroke-width:0.143716;stroke-linecap:butt;stroke-linejoin:miter;stroke-miterlimit:4;stroke-dasharray:none;stroke-opacity:1"
           d="M 72.555736,99.368286 70.053435,91.889859"
           id="path13725"
           inkscape:connector-curvature="0"
           sodipodi:nodetypes="cc"
           inkscape:export-xdpi="78.422279"
           inkscape:export-ydpi="78.422279" />
        <path
           style="fill:none;stroke:#000000;stroke-width:0.0718581;stroke-linecap:butt;stroke-linejoin:miter;stroke-miterlimit:4;stroke-dasharray:none;stroke-opacity:1"
           d="m 72.679071,88.883721 5.791014,-0.823294"
           id="path13727"
           inkscape:connector-curvature="0"
           sodipodi:nodetypes="cc"
           inkscape:export-xdpi="78.422279"
           inkscape:export-ydpi="78.422279" />
      </g>
      <path
         d="m 27.651802,115.94516 c -2.352649,-7.72957 -2.503586,-3.75992 -2.051653,-0.65438 -2.372365,-5.57947 0.93667,5.68715 -2.376759,-1.17865 2.254797,7.6831 -3.899317,-6.86846 -1.067423,1.74011 -3.206474,-5.82119 -3.567807,-6.63396 -1.184706,0.1306 -1.372688,-1.83071 -3.28119,-5.23823 -1.264476,1.58773 -1.995869,-1.40742 -1.459803,-3.11355 -1.551376,0.12933 -2.752061,-1.53797 1.568359,3.83654 -2.609538,-0.77986 0.217805,2.39167 -1.213901,0.30231 0.739429,5.30729 -2.520318,-3.89272 -3.504078,-8.37218 -2.211255,-1.2625 -4.1771432,-7.17893 0.22333,4.58431 -3.708133,-3.19988 -0.186285,1.0159 0.396807,4.84079 0.602368,7"
         stroke-opacity="0"
         id="path41"
         style="stroke-width:3.13929" />
      <path
         d="m 69.029016,116.29923 c 2.394173,-8.56279 2.656196,-4.21055 2.235613,-0.78675 2.467991,-6.20355 -0.889864,6.27369 2.579644,-1.37308 -2.287998,8.50865 4.112316,-7.6691 1.213646,1.87441 3.377683,-6.49659 3.754518,-7.40088 1.303308,0.10406 1.461949,-2.05521 3.473904,-5.85928 1.42621,1.70059 2.156129,-1.61142 1.526422,-3.46623 1.70565,0.0904 2.982861,-1.77981 -1.628009,4.26364 2.844806,-0.94298 -0.180974,2.63241 1.339483,0.29125 -0.682633,5.84996 2.671388,-4.35705 3.642353,-9.30651 2.396015,-1.45944 4.409592,-8.01905 -0.133801,5.03954 3.991684,-3.63592 0.228992,1.109 -0.317967,5.32666 -0.491131,7.70335"
         stroke-opacity="0"
         id="path42"
         style="stroke-width:3.44663" />
    </g>
  </g>
</svg>
