<?xml version="1.0" encoding="UTF-8"?>
<!-- Created with Inkscape (http://www.inkscape.org/) -->
<svg width="1549.4mm" height="1102.4mm" version="1.1" viewBox="0 0 1549.4 1102.4" xmlns="http://www.w3.org/2000/svg">
 <defs>
  <linearGradient id="linearGradient2" x1="44.876" x2="44.876" y1="-906.13" y2="-1319.3" gradientTransform="matrix(1,0,0,1.631,-1.5957,1554.3)" gradientUnits="userSpaceOnUse">
   <stop offset="0"/>
   <stop stop-opacity="0" offset="1"/>
  </linearGradient>
 </defs>
 <g transform="rotate(180 424.92 242.7)">
  <rect x="-699.56" y="-617" width="1549.4" height="1102.4" fill="url(#linearGradient2)" stroke-width="3.5951"/>
  <g fill="#fdf4c8">
   <g fill-opacity=".31594" stroke-width=".04098">
    <path d="m827.07-42.411c11.83 5.704-12.035 5.0894 0 0z"/>
    <path d="m802.2 121.37c11.83 5.704-12.035 5.0894 0 0z"/>
    <path d="m-663.32 148.88c11.83 5.7044-12.036 5.0898 0 0z"/>
    <path d="m-615.96 104.7c11.83 5.704-12.035 5.0895 0 0z"/>
    <path d="m-518.86 4.6846c11.83 5.704-12.035 5.0895 0 0z"/>
    <path d="m-180.46 101.79c11.83 5.704-12.035 5.0895 0 0z"/>
    <path d="m-343.97 46.224c11.83 5.704-12.035 5.0895 0 0z"/>
    <path d="m-158.23-23.097c11.83 5.704-12.035 5.0894 0 0z"/>
    <path d="m629.96 57.337c11.83 5.704-12.035 5.0895 0 0z"/>
    <path d="m668.85 148.88c11.83 5.7044-12.036 5.0898 0 0z"/>
    <path d="m52.904 426.43c11.83 5.7044-12.036 5.0898 0 0z"/>
    <path d="m659.06 307.9c11.83 5.7044-12.036 5.0898 0 0z"/>
    <path d="m699.55 253.13c11.83 5.7044-12.036 5.0898 0 0z"/>
    <path d="m793.74 235.67c11.83 5.7044-12.036 5.0898 0 0z"/>
   </g>
   <g fill-opacity=".77615" stroke-width=".04098">
    <path d="m831.31 436.22c11.83 5.7044-12.036 5.0898 0 0z" opacity=".79465"/>
    <path d="m810.41 382.25c11.83 5.7044-12.036 5.0898 0 0z" opacity=".79465"/>
    <path d="m713.3 444.69c11.83 5.7044-12.036 5.0898 0 0z" opacity=".79465"/>
    <path d="m584.19 468.23c11.83 5.7044-12.036 5.0898 0 0z" opacity=".79465"/>
   </g>
   <path d="m752.22 314.66c15.888 8.7836-16.923 6.696 0 0z" fill-opacity=".90009" opacity=".7" stroke-width=".060383"/>
   <g stroke-width=".04098">
    <g fill-opacity=".31594">
     <path d="m129.9 156.56c11.83 5.7044-12.036 5.0898 0 0z"/>
     <path d="m202.66 101.79c11.83 5.704-12.036 5.0894 0 0z"/>
     <path d="m369.08 115.02c11.83 5.704-12.035 5.0893 0 0z"/>
     <path d="m404.54 232.23c11.83 5.7044-12.036 5.0898 0 0z"/>
    </g>
    <path d="m598.21 371.13c11.83 5.7044-12.036 5.0898 0 0z" fill-opacity=".77615" opacity=".79465"/>
    <path d="m590.54 338.32c11.83 5.7044-12.036 5.0898 0 0z" fill-opacity=".77615" opacity=".79465"/>
   </g>
   <path d="m577.17 229.26c9.5197 4.5901-9.6847 4.0957 0 0z" fill-opacity=".90009" stroke-width=".032974"/>
   <path d="m730.63 368.16c9.5197 4.5901-9.6847 4.0957 0 0z" fill-opacity=".90009" stroke-width=".032974"/>
   <g fill-opacity=".31594" stroke-width=".04098">
    <path d="m478.88 440.98c11.83 5.7044-12.036 5.0898 0 0z"/>
    <path d="m169.32 409.76c11.83 5.7044-12.036 5.0898 0 0z"/>
    <path d="m39.675 289.91c11.83 5.7044-12.036 5.0898 0 0z"/>
    <path d="m218 244.66c11.83 5.7044-12.036 5.0898 0 0z"/>
    <path d="m12.423 160.79c11.83 5.7044-12.036 5.0898 0 0z"/>
    <path d="m-11.654 152.59c11.83 5.7044-12.036 5.0898 0 0z"/>
    <path d="m-195.54 158.14c11.83 5.7044-12.036 5.0898 0 0z"/>
    <path d="m-98.438 229.58c11.83 5.7044-12.036 5.0898 0 0z"/>
    <path d="m-189.98 368.22c11.83 5.7044-12.036 5.0898 0 0z"/>
    <path d="m-225.44 451.57c11.83 5.7044-12.036 5.0898 0 0z"/>
    <path d="m-656.18 263.45c11.83 5.7044-12.036 5.0898 0 0z"/>
    <path d="m-213 262.12c11.83 5.7044-12.036 5.0898 0 0z"/>
    <path d="m-334.45 203.12c11.83 5.7044-12.036 5.0898 0 0z"/>
    <path d="m-555.11 230.9c11.83 5.7044-12.036 5.0898 0 0z"/>
   </g>
   <path d="m-80.354 329.15c11.83 5.7044-12.036 5.0899 0 0z" fill-opacity=".77615" stroke-width=".04098"/>
  </g>
  <path d="m-250.4 333.81c11.83 5.7044-12.036 5.0898 0 0z" fill="#fcf1b9" fill-opacity=".77615" stroke-width=".04098"/>
  <g fill="#fdf4c8">
   <path d="m-310.76 443.1c13.879 7.3673-14.156 5.6763 0 0z" fill-opacity=".60811" stroke-width=".05288"/>
   <g stroke-width=".04098">
    <path d="m-303.98 309.66c11.83 5.7044-12.036 5.0898 0 0z" fill-opacity=".31594"/>
    <path d="m-444.98 430.89c11.83 5.7044-12.036 5.0898 0 0z" fill-opacity=".37206"/>
    <path d="m-525.1 301.36c11.83 5.7044-12.036 5.0898 0 0z" fill-opacity=".77615"/>
    <path d="m-533.66 391.61c11.83 5.7044-12.036 5.0898 0 0z" fill-opacity=".77615"/>
    <path d="m-593.68 340.77c11.83 5.7044-12.036 5.0898 0 0z" fill-opacity=".37339"/>
    <path d="m-643.58 359.47c11.83 5.7044-12.036 5.0898 0 0z" fill-opacity=".77615"/>
   </g>
  </g>
  <path d="m-610.48 441.19c-22.024 13.028 22.989 9.7047 0 0z" fill="#fbc02d" opacity=".25922" stroke-width=".094615"/>
  <g fill="#fdf4c8">
   <path d="m314.84 340.72c15.75 8.7073-16.775 6.6377 0 0z" fill-opacity=".74157" opacity=".79465" stroke-width=".059859"/>
   <path d="m409.25 384.3c9.5197 4.5901-9.6847 4.0957 0 0z" fill-opacity=".90009" stroke-width=".032974"/>
   <path d="m472.59 325.33c12.543 6.0485-12.761 5.3964 0 0z" fill-opacity=".54929" stroke-width=".043449"/>
   <path d="m-0.15969 472.08c12.543 6.0481-12.761 5.3968 0 0z" fill-opacity=".36501" stroke-width=".043449"/>
   <g fill-opacity=".31594" stroke-width=".03216">
    <path d="m-611.7-189.03c-9.2842 4.4763 9.4454 3.9945 0 0z"/>
    <path d="m-592.18-60.504c-9.2842 4.4763 9.4454 3.9944 0 0z"/>
    <path d="m557.95-38.909c-9.2845 4.4766 9.4455 3.9946 0 0z"/>
    <path d="m520.78-73.585c-9.2842 4.4763 9.4454 3.9944 0 0z"/>
    <path d="m444.58-152.07c-9.2841 4.4763 9.4454 3.9943 0 0z"/>
    <path d="m179-75.869c-9.2841 4.4763 9.4454 3.9943 0 0z"/>
    <path d="m-198.74-229.42c-9.2841 4.4763 9.4454 3.9943 0 0z"/>
    <path d="m-303.25-268.31c-9.2841 4.4763 9.4454 3.9943 0 0z"/>
    <path d="m-522.06-224.39c-9.2841 4.4763 9.4454 3.9943 0 0z"/>
    <path d="m550.03-397.17c-9.2841 4.4763 9.4454 3.9943 0 0z"/>
    <path d="m545.27-275.46c-9.2841 4.4763 9.4454 3.9943 0 0z"/>
    <path d="m710.63-355.63c-9.2841 4.4763 9.4454 3.9943 0 0z"/>
    <path d="m-30.994-460.4c-9.2841 4.4763 9.4454 3.9943 0 0z"/>
    <path d="m-388.45-328.9c-9.2841 4.4763 9.4454 3.9943 0 0z"/>
    <path d="m-538.99-506.44c-9.2841 4.4763 9.4454 3.9943 0 0z"/>
    <path d="m-383.42-586.61c-9.2841 4.4763 9.4454 3.9943 0 0z"/>
    <path d="m635.23-494.27c-9.2841 4.4763 9.4454 3.9943 0 0z"/>
    <path d="m294.97-467.55c-9.2841 4.4763 9.4454 3.9943 0 0z"/>
    <path d="m418.8-557.5c-9.2841 4.4763 9.4454 3.9943 0 0z"/>
    <path d="m307.32-119.47c-9.2841 4.4763 9.4454 3.9944 0 0z"/>
    <path d="m630.46-136.82c-9.2841 4.4763 9.4454 3.9944 0 0z"/>
    <path d="m759.32 18.759c-9.2841 4.4763 9.4454 3.9944 0 0z"/>
    <path d="m761.7-248.74c-9.2841 4.4763 9.4454 3.9944 0 0z"/>
    <path d="m161.56-173.88c-9.2842 4.4763 9.4454 3.9944 0 0z"/>
    <path d="m-457.01-110.75c-9.2841 4.4763 9.4454 3.9943 0 0z"/>
    <path d="m-487.53-38.909c-9.2845 4.4766 9.4455 3.9946 0 0z"/>
    <path d="m-479.85 85.884c-9.2845 4.4767 9.4454 3.9946 0 0z"/>
    <path d="m-511.62 42.902c-9.2845 4.4766 9.4454 3.9946 0 0z"/>
    <path d="m-585.54 29.197c-9.2845 4.4766 9.4454 3.9946 0 0z"/>
    <path d="m-64.563-32.888c-9.2845 4.4766 9.4454 3.9945 0 0z"/>
    <path d="m-121.66-75.869c-9.2841 4.4763 9.4454 3.9944 0 0z"/>
    <path d="m-252.27-65.487c-9.2842 4.4764 9.4453 3.9943 0 0z"/>
    <path d="m-280.1 26.498c-9.2845 4.4767 9.4454 3.9946 0 0z"/>
   </g>
   <path d="m-415.58 24.168c-7.4707 3.6024 7.6004 3.2141 0 0z" fill-opacity=".90009" stroke-width=".025878"/>
   <g fill-opacity=".31594" stroke-width=".03216">
    <path d="m6.2432 71.764c-9.2845 4.4766 9.4454 3.9946 0 0z"/>
    <path d="m-133.71 36.257c-9.2845 4.4766 9.4454 3.9946 0 0z"/>
    <path d="m27.63-29.565c-9.2845 4.4766 9.4455 3.9947 0 0z"/>
    <path d="m46.526-36.002c-9.2845 4.4766 9.4454 3.9945 0 0z"/>
    <path d="m190.84-31.642c-9.2844 4.4767 9.4455 3.9946 0 0z"/>
    <path d="m114.63 24.422c-9.2845 4.4766 9.4454 3.9946 0 0z"/>
    <path d="m552.34 51c-9.2845 4.4766 9.4454 3.9946 0 0z"/>
    <path d="m204.54 49.962c-9.2845 4.4766 9.4454 3.9946 0 0z"/>
    <path d="m299.85 3.6574c-9.2845 4.4766 9.4454 3.9946 0 0z"/>
    <path d="m473.02 25.46c-9.2845 4.4767 9.4454 3.9946 0 0z"/>
    <path d="m275.94 87.267c-9.2845 4.4766 9.4454 3.9946 0 0z"/>
   </g>
   <g fill-opacity=".77615" stroke-width=".03216">
    <path d="m449.47 80.752c-9.2846 4.4766 9.4454 3.9947 0 0z"/>
    <path d="m-45.546-365.42c-9.2845 4.4765 9.4454 3.9946 0 0z"/>
    <path d="m-388.45-314.35c-9.2845 4.4766 9.4454 3.9947 0 0z"/>
    <path d="m-249.8-205.08c-9.2845 4.4766 9.4454 3.9947 0 0z"/>
    <path d="m482.03-414.1c-9.2845 4.4765 9.4454 3.9946 0 0z"/>
    <path d="m786.04 6.588c-9.2846 4.4766 9.4454 3.9947 0 0z"/>
   </g>
   <path d="m-68.274 78.571c-13.68 6.5965 13.918 5.8859 0 0z" fill-opacity=".90009" opacity=".7" stroke-width=".047388"/>
   <path d="m200.74 361.36c12.543 6.0481-12.761 5.3967 0 0z" fill-opacity=".90009" opacity=".79465" stroke-width=".043449"/>
   <g stroke-width=".04098">
    <path d="m-120.49 405.1c11.83 5.7044-12.036 5.0899 0 0z" fill-opacity=".77615"/>
    <path d="m-394.24 392.67c11.83 5.7044-12.036 5.0899 0 0z" fill-opacity=".77615"/>
    <path d="m-512.96 471.07c11.83 5.7045-12.036 5.0897 0 0z" fill-opacity=".3688"/>
    <path d="m308.82 421.35c11.83 5.7044-12.036 5.0898 0 0z" fill-opacity=".42033"/>
    <path d="m262.03 422.86c11.83 5.7044-12.036 5.0898 0 0z" fill-opacity=".77615" opacity=".79465"/>
    <path d="m-48.897 392.67c11.83 5.7044-12.036 5.09 0 0z" fill-opacity=".43733"/>
   </g>
   <path d="m708.25-80.989c-9.2845 4.4766 9.4454 3.9947 0 0z" fill-opacity=".90125" stroke-width=".03216"/>
   <path d="m129.62 228.25c15.888 8.7836-16.923 6.696 0 0z" fill-opacity=".90009" opacity=".7" stroke-width=".060383"/>
   <path d="m-364.11 110.37c11.83 5.7044-12.036 5.0898 0 0z" fill-opacity=".90125" stroke-width=".04098"/>
  </g>
 </g>
</svg>
