<?xml version="1.0" encoding="UTF-8"?>
<!-- Created with Inkscape (http://www.inkscape.org/) -->
<svg width="144.15mm" height="13.847mm" version="1.1" viewBox="0 0 144.15 13.847" xmlns="http://www.w3.org/2000/svg" xmlns:cc="http://creativecommons.org/ns#" xmlns:dc="http://purl.org/dc/elements/1.1/" xmlns:rdf="http://www.w3.org/1999/02/22-rdf-syntax-ns#">
 <metadata>
  <rdf:RDF>
   <cc:Work rdf:about="">
    <dc:format>image/svg+xml</dc:format>
    <dc:type rdf:resource="http://purl.org/dc/dcmitype/StillImage"/>
   </cc:Work>
  </rdf:RDF>
 </metadata>
 <g transform="translate(-25.206 -121.1)" stroke-width=".26458">
  <path d="m27.962 134.59c0-0.14552-0.30548-0.26459-0.67885-0.26459-1.143 0-1.7024-0.45955-1.7023-1.3984 7.7e-5 -1.0527 0.94815-6.9406 1.1773-7.3114 0.09203-0.14891 0.75775-0.34907 1.4794-0.4448 1.6233-0.21534 1.8379-0.94963 0.41467-1.4193-1.1462-0.37829-3.2405-1.7603-3.4348-2.2667-0.12874-0.3355 0.77848-0.38858 6.6414-0.38858h6.7905l-0.86867 0.89623c-0.77088 0.79535-1.8335 1.3969-3.27 1.8512-0.25466 0.0805-0.46302 0.37279-0.46302 0.64948 0 0.40136 0.24535 0.53071 1.2136 0.63985 0.6675 0.0752 1.3179 0.24102 1.4452 0.36839 0.24906 0.24907 1.3097 6.3694 1.3098 7.558 5.8e-5 0.7996-0.62717 1.2661-1.7023 1.2661-0.37337 0-0.67885 0.11907-0.67885 0.26459 0 0.16422-1.4552 0.26458-3.8365 0.26458s-3.8365-0.10036-3.8365-0.26458zm5.1473-1.9623c1.174-0.49054 1.8201-1.5183 1.8201-2.8954 0-2.9102-3.361-4.3457-5.4002-2.3064-1.5001 1.5001-1.2041 3.9408 0.61225 5.0483 1.023 0.62375 1.7523 0.66149 2.9679 0.15357zm-1.8442-2.6018c-0.06596-0.18191 0.03205-0.91507 0.21781-1.6293l0.33774-1.2985 0.32052 1.3886c0.17628 0.76371 0.25357 1.4969 0.17176 1.6292-0.21806 0.35284-0.90875 0.29349-1.0478-0.09z" fill="#737373"/>
  <path d="m42.085 130.8 1.8194-1.8334-1.6536-1.8046-1.6536-1.8046 38.548-0.26458 4.4057 3.9688-3.8765 3.5612-39.409 0.01z" fill="#b3b3b3"/>
  <path d="m112.78 130.81 1.8194-1.8334-3.3073-3.6092 38.548-0.26458 4.4057 3.9688-3.8765 3.5612-39.409 0.01z" fill="#b3b3b3"/>
  <path d="m89.527 134.5c-0.56712-0.39723-0.58804-0.56662-0.58804-4.7625 0-5.1832 0.10243-5.409 2.4542-5.409 1.3839 0 1.4004-0.01 1.9182-1.1245l0.52232-1.1245 2.9373-0.0744c3.1702-0.0804 3.266-0.0444 3.7287 1.3974 0.23654 0.73698 0.35734 0.79963 1.6892 0.87598 1.0152 0.0582 1.6084 0.24565 2.0297 0.64143 0.56873 0.53423 0.59531 0.7462 0.59531 4.7464 0 3.8344-0.0446 4.2318-0.52916 4.7164-0.5018 0.50179-0.88195 0.52916-7.3495 0.52916-5.7447 0-6.913-0.065-7.4083-0.41187zm9.2468-1.8702c2.4976-1.2572 2.5888-5.1675 0.15554-6.6714-3.2079-1.9826-7.1305 1.341-5.6589 4.7948 0.94879 2.2267 3.2494 3.0112 5.5033 1.8766zm-2.8612-1.1553c-2.3361-0.94273-1.6231-4.5001 0.90196-4.5001 2.42 0 3.3476 2.9991 1.3116 4.2406-0.92414 0.56347-1.3398 0.61221-2.2136 0.25959zm7.2478-4.8309c-0.16669-0.50064-0.99231-0.57182-0.99231-0.0855 0 0.24544 0.22622 0.41628 0.55122 0.41628 0.32331 0 0.50568-0.13674 0.44109-0.33073z" fill="#737373"/>
  <path d="m160.56 134.53c-1.5276-0.66352-2.4226-1.4571-3.229-2.8631-0.6489-1.1314-0.78238-1.6596-0.77962-3.0849 4e-3 -2.1836 0.60182-3.5292 2.187-4.9246 1.8667-1.6432 4.0105-2.0908 6.2423-1.3034 4.7326 1.6698 5.9148 7.8351 2.1245 11.08-1.7058 1.4601-4.594 1.9439-6.5452 1.0964zm3.4572-5.4889c2.1578-2.7803 2.1969-2.85 1.754-3.1304-0.57743-0.36574-0.60775-0.34224-2.2291 1.7277l-1.5406 1.9668-0.78493-0.66047c-0.71109-0.59834-0.82376-0.62165-1.1976-0.24778s-0.30375 0.5237 0.74535 1.5927c0.63693 0.64898 1.2489 1.1238 1.3599 1.0552 0.11103-0.0686 0.96284-1.1052 1.8929-2.3036z" fill="#21e000"/>
 </g>
</svg>
